<?xml version="1.0" encoding="utf-8"?>
<!-- Generator: Adobe Illustrator 15.0.0, SVG Export Plug-In . SVG Version: 6.00 Build 0)  -->
<!DOCTYPE svg PUBLIC "-//W3C//DTD SVG 1.1//EN" "http://www.w3.org/Graphics/SVG/1.1/DTD/svg11.dtd">
<svg version="1.1" id="Ebene_1" xmlns="http://www.w3.org/2000/svg" xmlns:xlink="http://www.w3.org/1999/xlink" x="0px" y="0px"
	 width="636px" height="408px" viewBox="194 181.5 636 408" enable-background="new 194 181.5 636 408" xml:space="preserve">
<path d="M397.55,356.4v69.9h115.501c-4.65,30-34.95,88.05-115.501,88.05C328.1,514.35,271.4,456.6,271.4,385.5
	c0-71.101,56.7-128.851,126.149-128.851c39.601,0,66.001,16.95,81.15,31.5l55.2-53.25C498.5,201.6,452.6,181.5,397.55,181.5
	c-112.5,0-203.55,91.2-203.55,204s91.05,204,203.55,204C515,589.5,593,506.699,593,390.15c0-13.35-1.5-23.55-3.149-33.75H397.55
	L397.55,356.4z M830,355.05h-58.05V297h-57.899v58.05H656v57.899h58.051V471h57.899v-58.051H830"/>
</svg>
