<?xml version="1.0" encoding="utf-8"?>
<!-- Generator: Adobe Illustrator 15.0.0, SVG Export Plug-In . SVG Version: 6.00 Build 0)  -->
<!DOCTYPE svg PUBLIC "-//W3C//DTD SVG 1.1//EN" "http://www.w3.org/Graphics/SVG/1.1/DTD/svg11.dtd">
<svg version="1.1" id="Ebene_1" xmlns="http://www.w3.org/2000/svg" xmlns:xlink="http://www.w3.org/1999/xlink" x="0px" y="0px"
	 width="264.895px" height="185.977px" viewBox="67.578 107.012 264.895 185.977"
	 enable-background="new 67.578 107.012 264.895 185.977" xml:space="preserve">
<path d="M330.156,151.25c-4.141-35.391-18.203-40.313-46.094-42.188c-39.688-2.734-128.359-2.734-168.047,0
	c-27.891,1.875-41.953,6.797-46.094,42.188c-3.125,26.25-3.125,71.172,0,97.5c4.141,35.391,18.203,40.313,46.094,42.188
	c39.766,2.734,128.359,2.734,168.047,0c27.891-1.875,41.953-6.797,46.094-42.188C333.281,222.5,333.281,177.578,330.156,151.25z
	 M173.594,237.031v-73.906l70.859,36.953L173.594,237.031z"/>
</svg>
