<?xml version="1.0" encoding="utf-8"?>
<!-- Generator: Adobe Illustrator 15.0.0, SVG Export Plug-In . SVG Version: 6.00 Build 0)  -->
<!DOCTYPE svg PUBLIC "-//W3C//DTD SVG 1.1//EN" "http://www.w3.org/Graphics/SVG/1.1/DTD/svg11.dtd">
<svg class="sb-logo" version="1.1" id="logo" xmlns="http://www.w3.org/2000/svg" xmlns:xlink="http://www.w3.org/1999/xlink" x="0px" y="0px"
	 width="1362.001px" height="328.354px" viewBox="0 0 1362.001 328.354" enable-background="new 0 0 1362.001 328.354"
	 xml:space="preserve">
<rect id="sb-logo-upperbox" x="0" fill="#FFB400" width="1362" height="218.427"/>
<rect id="sb-logo-lowerbox" y="218.427" fill="#000098" width="1362.001" height="109.928"/>
<g id="sb-logo-lowertext">
	<path fill="#FFFFFF" d="M43.688,244.723h22.3c3.4,0,6.55,0.25,9.45,0.75c2.9,0.5,5.433,1.385,7.6,2.65
		c2.166,1.267,3.866,2.935,5.1,5c1.233,2.067,1.85,4.667,1.85,7.8c0,1.467-0.2,2.935-0.6,4.4c-0.4,1.467-0.967,2.834-1.7,4.1
		c-0.734,1.268-1.617,2.4-2.65,3.4c-1.034,1-2.217,1.734-3.55,2.199v0.4c1.666,0.4,3.2,1.018,4.6,1.85
		c1.4,0.835,2.633,1.885,3.7,3.15c1.066,1.268,1.9,2.75,2.5,4.45c0.6,1.7,0.9,3.649,0.9,5.85c0,3.335-0.65,6.2-1.95,8.601
		c-1.3,2.399-3.1,4.384-5.4,5.949c-2.3,1.567-4.984,2.734-8.05,3.5c-3.067,0.768-6.367,1.15-9.9,1.15h-24.2V244.723z
		 M65.288,270.823c3.6,0,6.216-0.7,7.85-2.101c1.633-1.399,2.45-3.266,2.45-5.6c0-2.533-0.834-4.333-2.5-5.4
		c-1.667-1.065-4.234-1.6-7.7-1.6h-7v14.7H65.288z M66.688,298.522c8.065,0,12.1-2.933,12.1-8.8c0-2.865-1-4.915-3-6.149
		c-2-1.233-5.034-1.851-9.1-1.851h-8.3v16.8H66.688z"/>
	<path fill="#FFFFFF" d="M174.787,294.423h-19.9l-4,15.5h-15l20.4-65.2h17.7l20.4,65.2h-15.6L174.787,294.423z M171.787,282.923
		l-1.5-6c-0.934-3.266-1.834-6.732-2.7-10.4c-0.867-3.665-1.734-7.199-2.6-10.6h-0.4c-0.8,3.467-1.617,7.018-2.45,10.65
		c-0.834,3.634-1.717,7.084-2.65,10.35l-1.6,6H171.787z"/>
	<path fill="#FFFFFF" d="M267.187,311.123c-8.467,0-14.934-2.5-19.4-7.5c-4.467-5-6.7-12.966-6.7-23.9v-35h14.8v36.5
		c0,6.4,0.965,10.867,2.9,13.4c1.933,2.534,4.733,3.8,8.4,3.8c3.666,0,6.5-1.266,8.5-3.8c2-2.533,3-7,3-13.4v-36.5h14.2v35
		c0,10.935-2.185,18.9-6.55,23.9C281.969,308.623,275.586,311.123,267.187,311.123z"/>
	<path fill="#FFFFFF" d="M347.985,244.723h40.8v12.4h-26.1v13.1h22.2v12.3h-22.2v15h27.1v12.4h-41.8V244.723z"/>
	<path fill="#FFFFFF" d="M478.083,309.923l-12.5-23.5h-8.1v23.5h-14.7v-65.2h23.5c3.465,0,6.715,0.335,9.75,1
		c3.033,0.667,5.683,1.784,7.95,3.351c2.266,1.566,4.066,3.649,5.4,6.25c1.333,2.6,2,5.834,2,9.699c0,4.801-1.05,8.75-3.15,11.851
		c-2.1,3.1-4.917,5.417-8.45,6.95l14.8,26.1H478.083z M457.483,274.723h7.6c3.866,0,6.815-0.815,8.85-2.45
		c2.033-1.633,3.05-4.05,3.05-7.25c0-3.199-1.017-5.433-3.05-6.699c-2.035-1.266-4.984-1.9-8.85-1.9h-7.6V274.723z"/>
	<path fill="#FFFFFF" d="M544.082,244.723h15.1l17,32.4l6.4,14.399h0.4c-0.334-3.465-0.717-7.332-1.15-11.6
		c-0.435-4.266-0.65-8.333-0.65-12.2v-23h14v65.2h-15.1l-17-32.5l-6.4-14.2h-0.4c0.333,3.601,0.716,7.468,1.15,11.601
		c0.433,4.134,0.65,8.134,0.65,12v23.1h-14V244.723z"/>
	<path fill="#FFFFFF" d="M650.581,244.723h40.8v12.4h-26.1v13.1h22.2v12.3h-22.2v15h27.1v12.4h-41.8V244.723z"/>
	<path fill="#FFFFFF" d="M771.079,311.123c-8.468,0-14.935-2.5-19.4-7.5c-4.468-5-6.7-12.966-6.7-23.9v-35h14.8v36.5
		c0,6.4,0.966,10.867,2.9,13.4c1.933,2.534,4.732,3.8,8.4,3.8c3.665,0,6.5-1.266,8.5-3.8c2-2.533,3-7,3-13.4v-36.5h14.199v35
		c0,10.935-2.184,18.9-6.55,23.9C785.861,308.623,779.479,311.123,771.079,311.123z"/>
	<path fill="#FFFFFF" d="M851.878,244.723h40.8v12.4h-26.1v13.1h22.199v12.3h-22.199v15h27.1v12.4h-41.8V244.723z"/>
	<path fill="#FFFFFF" d="M981.976,309.923l-12.5-23.5h-8.1v23.5h-14.7v-65.2h23.5c3.466,0,6.716,0.335,9.75,1
		c3.032,0.667,5.683,1.784,7.95,3.351c2.266,1.566,4.065,3.649,5.399,6.25c1.333,2.6,2,5.834,2,9.699
		c0,4.801-1.05,8.75-3.149,11.851c-2.101,3.1-4.918,5.417-8.45,6.95l14.8,26.1H981.976z M961.376,274.723h7.6
		c3.865,0,6.815-0.815,8.85-2.45c2.033-1.633,3.051-4.05,3.051-7.25c0-3.199-1.018-5.433-3.051-6.699
		c-2.034-1.266-4.984-1.9-8.85-1.9h-7.6V274.723z"/>
	<path fill="#FFFFFF" d="M1073.675,311.123c-8.468,0-14.935-2.5-19.4-7.5c-4.467-5-6.7-12.966-6.7-23.9v-35h14.8v36.5
		c0,6.4,0.966,10.867,2.9,13.4c1.933,2.534,4.732,3.8,8.4,3.8c3.665,0,6.5-1.266,8.5-3.8c2-2.533,3-7,3-13.4v-36.5h14.199v35
		c0,10.935-2.184,18.9-6.55,23.9C1088.457,308.623,1082.074,311.123,1073.675,311.123z"/>
	<path fill="#FFFFFF" d="M1154.474,244.723h15.1l17,32.4l6.4,14.399h0.399c-0.334-3.465-0.717-7.332-1.149-11.6
		c-0.435-4.266-0.65-8.333-0.65-12.2v-23h14v65.2h-15.1l-17-32.5l-6.4-14.2h-0.399c0.332,3.601,0.715,7.468,1.149,11.601
		c0.433,4.134,0.65,8.134,0.65,12v23.1h-14V244.723z"/>
	<path fill="#FFFFFF" d="M1289.772,311.123c-4.467,0-8.65-0.718-12.55-2.15c-3.9-1.433-7.284-3.55-10.15-6.35
		c-2.867-2.8-5.117-6.283-6.75-10.45c-1.634-4.166-2.45-8.982-2.45-14.45c0-5.399,0.833-10.216,2.5-14.45
		c1.666-4.232,3.95-7.815,6.851-10.75c2.899-2.933,6.282-5.165,10.149-6.699c3.866-1.533,7.966-2.301,12.301-2.301
		c4.732,0,8.8,0.867,12.199,2.601c3.4,1.734,6.166,3.7,8.301,5.899l-7.7,9.4c-1.667-1.466-3.435-2.7-5.3-3.7c-1.867-1-4.2-1.5-7-1.5
		c-2.535,0-4.851,0.484-6.95,1.45c-2.101,0.967-3.917,2.35-5.45,4.15c-1.534,1.8-2.717,4-3.55,6.6c-0.835,2.6-1.25,5.534-1.25,8.8
		c0,6.734,1.516,11.95,4.55,15.65c3.033,3.7,7.615,5.55,13.75,5.55c1.333,0,2.633-0.166,3.9-0.5c1.266-0.333,2.3-0.833,3.1-1.5
		v-11.2h-10.8v-12h23.8v30c-2.268,2.2-5.268,4.067-9,5.601C1298.538,310.355,1294.372,311.123,1289.772,311.123z"/>
</g>
<g id="sb-logo-uppertext">
	<path fill="#000098" d="M80.287,203.722c-8.541,0-17.299-1.658-26.272-4.967c-8.978-3.309-16.776-7.667-23.397-13.07l17.253-24.05
		c5.923,4.534,11.588,7.933,16.992,10.195c5.4,2.267,10.89,3.398,16.469,3.398c5.751,0,9.934-0.956,12.548-2.875
		c2.614-1.916,3.921-4.616,3.921-8.104c0-2.091-0.743-3.962-2.222-5.621c-1.482-1.654-3.488-3.178-6.012-4.575
		c-2.529-1.393-5.359-2.655-8.496-3.791c-3.137-1.131-6.364-2.394-9.672-3.791c-4.011-1.568-8.019-3.398-12.025-5.49
		c-4.011-2.091-7.671-4.661-10.979-7.712c-3.313-3.047-6.013-6.621-8.104-10.718c-2.091-4.093-3.137-8.843-3.137-14.248
		c0-5.922,1.176-11.412,3.529-16.469c2.353-5.053,5.707-9.321,10.064-12.809c4.354-3.484,9.583-6.229,15.685-8.235
		c6.099-2.001,12.896-3.006,20.391-3.006c9.934,0,18.646,1.699,26.142,5.098c7.491,3.398,14.027,7.189,19.606,11.372l-17.253,23.005
		c-4.706-3.484-9.325-6.184-13.855-8.104c-4.534-1.916-9.063-2.875-13.593-2.875c-9.763,0-14.64,3.398-14.64,10.195
		c0,2.091,0.694,3.88,2.091,5.359c1.393,1.483,3.268,2.835,5.621,4.052c2.353,1.222,5.053,2.398,8.104,3.529
		c3.047,1.136,6.229,2.312,9.542,3.529c4.183,1.568,8.32,3.357,12.417,5.359c4.093,2.005,7.842,4.489,11.241,7.45
		c3.398,2.966,6.144,6.581,8.235,10.849c2.091,4.272,3.137,9.37,3.137,15.293c0,5.927-1.135,11.417-3.398,16.469
		c-2.267,5.057-5.665,9.456-10.195,13.202c-4.534,3.749-10.11,6.711-16.731,8.887C96.666,202.632,88.999,203.722,80.287,203.722z"/>
	<path fill="#000098" d="M236.873,203.722c-9.063,0-17.474-1.527-25.227-4.574c-7.757-3.047-14.509-7.45-20.26-13.201
		c-5.751-5.751-10.285-12.851-13.594-21.306c-3.313-8.451-4.967-18.079-4.967-28.887c0-10.804,1.83-20.431,5.49-28.886
		c3.66-8.451,8.582-15.555,14.77-21.306c6.184-5.751,13.373-10.15,21.567-13.202c8.189-3.047,16.73-4.575,25.619-4.575
		c8.014,0,15.117,1.307,21.306,3.921c6.184,2.614,11.719,5.927,16.6,9.934l-18.038,24.835c-6.103-5.053-11.939-7.581-17.515-7.581
		c-9.411,0-16.821,3.313-22.221,9.934c-5.404,6.625-8.104,15.599-8.104,26.926c0,11.331,2.745,20.305,8.235,26.926
		c5.49,6.625,12.417,9.934,20.783,9.934c4.183,0,8.234-0.915,12.156-2.745c3.921-1.83,7.622-4.052,11.11-6.667l15.162,25.097
		c-6.45,5.579-13.422,9.542-20.914,11.893C251.337,202.546,244.017,203.722,236.873,203.722z"/>
	<path fill="#000098" d="M324.97,17.333h38.428v44.963l-1.83,23.266c4.877-4.354,10.542-8.406,16.992-12.156
		c6.446-3.746,14.117-5.621,23.005-5.621c14.116,0,24.353,4.62,30.716,13.855c6.36,9.24,9.542,22.049,9.542,38.428v80.516h-38.428
		v-75.549c0-9.411-1.266-15.857-3.791-19.345c-2.528-3.484-6.58-5.228-12.156-5.228c-4.881,0-9.064,1.09-12.548,3.268
		c-3.488,2.181-7.32,5.273-11.502,9.28v87.574H324.97V17.333z"/>
	<path fill="#000098" d="M496.72,70.923h31.37l2.614,16.469h1.046c5.576-5.229,11.674-9.803,18.299-13.725
		c6.621-3.921,14.378-5.882,23.266-5.882c14.116,0,24.353,4.62,30.716,13.855c6.36,9.24,9.542,22.049,9.542,38.428v80.516h-38.428
		v-75.549c0-9.411-1.266-15.857-3.791-19.345c-2.528-3.484-6.58-5.228-12.156-5.228c-4.881,0-9.064,1.09-12.548,3.268
		c-3.488,2.181-7.32,5.273-11.502,9.28v87.574H496.72V70.923z"/>
	<path fill="#000098" d="M726.765,203.722c-9.239,0-17.866-1.527-25.881-4.574c-8.018-3.047-14.99-7.491-20.913-13.332
		c-5.927-5.837-10.546-12.94-13.855-21.306c-3.313-8.365-4.967-17.948-4.967-28.756c0-10.457,1.74-19.908,5.228-28.364
		c3.484-8.451,8.059-15.595,13.725-21.436c5.661-5.837,12.156-10.326,19.476-13.463c7.319-3.137,14.9-4.706,22.743-4.706
		c9.235,0,17.294,1.568,24.181,4.706c6.883,3.137,12.634,7.495,17.254,13.071c4.615,5.58,8.059,12.156,10.326,19.737
		c2.263,7.581,3.398,15.816,3.398,24.704c0,3.488-0.176,6.797-0.523,9.934c-0.351,3.137-0.698,5.49-1.045,7.059H698.27
		c1.74,9.411,5.621,16.338,11.634,20.783c6.013,4.444,13.373,6.666,22.09,6.666c9.235,0,18.561-2.875,27.971-8.627l12.81,23.267
		c-6.625,4.533-13.985,8.103-22.09,10.718C742.58,202.415,734.606,203.722,726.765,203.722z M744.802,121.638
		c0-7.32-1.658-13.243-4.967-17.776c-3.313-4.53-8.888-6.797-16.73-6.797c-6.103,0-11.461,2.005-16.077,6.013
		c-4.619,4.011-7.626,10.195-9.019,18.561H744.802z"/>
	<path fill="#000098" d="M845.706,51.839c-6.449,0-11.764-1.871-15.946-5.621c-4.183-3.746-6.273-8.582-6.273-14.508
		c0-5.923,2.091-10.718,6.273-14.378c4.183-3.66,9.497-5.49,15.946-5.49c6.621,0,11.98,1.83,16.077,5.49
		c4.093,3.66,6.144,8.455,6.144,14.378c0,5.927-2.051,10.763-6.144,14.508C857.687,49.969,852.327,51.839,845.706,51.839z
		 M826.623,70.923h38.428v129.662h-38.428V70.923z"/>
	<path fill="#000098" d="M967.522,203.722c-8.018,0-15.293-1.568-21.828-4.705s-12.115-7.622-16.73-13.462
		c-4.62-5.837-8.194-12.94-10.719-21.306c-2.528-8.365-3.79-17.862-3.79-28.495c0-10.628,1.523-20.129,4.575-28.494
		c3.047-8.365,7.058-15.464,12.024-21.306c4.967-5.837,10.719-10.326,17.254-13.463s13.201-4.706,19.998-4.706
		c7.32,0,13.332,1.221,18.038,3.66c4.705,2.442,9.321,5.751,13.855,9.934l-1.569-19.868V17.333h38.429v183.252h-31.37l-2.614-12.809
		h-1.046c-4.533,4.534-9.848,8.325-15.946,11.372C979.98,202.194,973.797,203.722,967.522,203.722z M977.456,172.353
		c4.183,0,7.974-0.87,11.372-2.614c3.398-1.74,6.666-4.792,9.803-9.149v-53.068c-3.488-3.137-7.058-5.314-10.718-6.535
		c-3.66-1.217-7.233-1.83-10.718-1.83c-6.103,0-11.503,2.92-16.208,8.757c-4.706,5.841-7.059,14.946-7.059,27.318
		c0,12.899,2.047,22.31,6.144,28.233C964.165,169.391,969.961,172.353,977.456,172.353z"/>
	<path fill="#000098" d="M1151.56,203.722c-9.239,0-17.866-1.527-25.88-4.574c-8.019-3.047-14.991-7.491-20.913-13.332
		c-5.927-5.837-10.547-12.94-13.855-21.306c-3.313-8.365-4.967-17.948-4.967-28.756c0-10.457,1.74-19.908,5.229-28.364
		c3.484-8.451,8.059-15.595,13.724-21.436c5.662-5.837,12.156-10.326,19.476-13.463c7.32-3.137,14.901-4.706,22.744-4.706
		c9.235,0,17.294,1.568,24.181,4.706c6.883,3.137,12.634,7.495,17.254,13.071c4.615,5.58,8.059,12.156,10.325,19.737
		c2.263,7.581,3.398,15.816,3.398,24.704c0,3.488-0.176,6.797-0.522,9.934c-0.352,3.137-0.698,5.49-1.046,7.059h-77.641
		c1.74,9.411,5.62,16.338,11.633,20.783c6.013,4.444,13.373,6.666,22.09,6.666c9.235,0,18.561-2.875,27.972-8.627l12.81,23.267
		c-6.625,4.533-13.986,8.103-22.09,10.718C1167.376,202.415,1159.402,203.722,1151.56,203.722z M1169.598,121.638
		c0-7.32-1.658-13.243-4.967-17.776c-3.313-4.53-8.889-6.797-16.73-6.797c-6.103,0-11.462,2.005-16.077,6.013
		c-4.62,4.011-7.626,10.195-9.02,18.561H1169.598z"/>
	<path fill="#000098" d="M1251.419,70.923h31.37l2.614,22.743h1.045c4.706-8.888,10.367-15.424,16.992-19.606
		c6.621-4.183,13.243-6.274,19.868-6.274c3.66,0,6.666,0.221,9.019,0.654c2.353,0.437,4.485,1.09,6.405,1.96l-6.274,33.2
		c-2.442-0.694-4.705-1.217-6.797-1.568c-2.091-0.347-4.534-0.523-7.319-0.523c-4.882,0-9.979,1.744-15.293,5.229
		c-5.318,3.488-9.718,9.672-13.202,18.561v75.288h-38.428V70.923z"/>
</g>
</svg>
