<?xml version="1.0" encoding="utf-8"?>
<!-- Generator: Adobe Illustrator 15.0.0, SVG Export Plug-In . SVG Version: 6.00 Build 0)  -->
<!DOCTYPE svg PUBLIC "-//W3C//DTD SVG 1.1//EN" "http://www.w3.org/Graphics/SVG/1.1/DTD/svg11.dtd">
<svg version="1.1" id="items" class="spa-logo" xmlns="http://www.w3.org/2000/svg" xmlns:xlink="http://www.w3.org/1999/xlink" x="0px" y="0px"
	 width="542.479px" height="543.25px" viewBox="0 0 542.479 543.25" enable-background="new 0 0 542.479 543.25"
	 xml:space="preserve">
<path id="spal1" fill="#8BD8BD" d="M83.058,79.016l91.867-10.279l30.609-58.304C158.632,22.236,116.61,46.3,83.058,79.016z"/>
<path id="spal2" fill="#8BD8BD" d="M238.475,101.876L46.308,123.378c-15.926,24.021-28.111,50.733-35.732,79.313l34.108-4.135L238.475,101.876z
	"/>
<path id="spal3" fill="#8BD8BD" d="M412.967,42.103c-41.109-25.262-89.488-39.84-141.277-39.84c-5.704,0-11.36,0.198-16.977,0.546
	l-31.792,60.559L412.967,42.103z"/>
<path id="spal4" fill="#8BD8BD" d="M508.55,142.327c-13.322-24.19-30.234-46.123-50.031-65.071l-88.54,9.907l86.984,61.417L508.55,142.327z"/>
<polygon id="spal5" fill="#8BD8BD" points="324.206,103.808 163.046,184.208 397.776,155.754 "/>
<path id="spal6" fill="#8BD8BD" d="M2.958,243.906c-0.988,9.397-1.505,18.935-1.505,28.594c0,6.263,0.231,12.472,0.651,18.628
	c2.824-3.872,6.141-7.359,9.986-10.438c6.662-5.331,14.662-9.531,24-12.6c9.331-3.063,19.731-4.6,31.2-4.6c15.2,0,28.531,2.6,40,7.8
	c11.462,5.2,21.462,11,30,17.4l-26.4,35.2c-7.2-5.331-14.269-9.463-21.2-12.4c-6.938-2.931-13.869-4.399-20.8-4.399
	c-14.938,0-22.4,5.199-22.4,15.6c0,3.2,1.063,5.938,3.2,8.2c2.131,2.269,5,4.337,8.6,6.2c3.6,1.868,7.731,3.668,12.4,5.399
	c4.663,1.737,9.531,3.538,14.6,5.4c6.4,2.399,12.731,5.138,19,8.2c6.263,3.068,12,6.868,17.2,11.399
	c5.2,4.538,9.4,10.069,12.6,16.601c3.2,6.537,4.8,14.337,4.8,23.399c0,9.069-1.737,17.469-5.2,25.2
	c-3.469,7.737-8.668,14.469-15.6,20.2c-6.938,5.737-15.469,10.269-25.6,13.6c-2.223,0.73-4.537,1.366-6.913,1.937
	c25.844,24.558,56.546,44.041,90.51,56.891V268.292h48l4,19.6h1.6c7.731-6.932,16.462-12.731,26.2-17.4c9.731-4.662,19.8-7,30.2-7
	c12,0,22.8,2.4,32.4,7.2c9.6,4.8,17.73,11.6,24.4,20.4c6.662,8.8,11.799,19.399,15.4,31.8c3.6,12.399,5.398,26.2,5.398,41.399
	c0,17.069-2.336,32.2-7,45.4c-4.668,13.2-10.938,24.4-18.799,33.6c-7.869,9.2-16.801,16.2-26.801,21c-10,4.801-20.338,7.2-31,7.2
	c-8.537,0-16.8-1.8-24.8-5.399c-8-3.601-15.469-8.731-22.4-15.4l2,31.6v57.942c12.036,1.64,24.318,2.505,36.804,2.505
	c70.563,0,134.8-27.056,182.93-71.346c-1.232,0.06-2.473,0.099-3.729,0.099c-9.068,0-17.268-1.537-24.6-4.6
	c-7.338-3.063-13.537-7.331-18.6-12.8c-5.068-5.463-9-11.801-11.801-19c-2.799-7.2-4.199-15.063-4.199-23.601
	c0-20.8,8.799-37.063,26.4-48.8c17.6-11.731,46-19.6,85.199-23.6c-0.537-8.801-3.137-15.801-7.801-21
	c-4.668-5.2-12.469-7.801-23.398-7.801c-8.539,0-17,1.601-25.4,4.801c-8.4,3.199-17.4,7.6-27,13.199l-21.201-38.8
	c12.801-7.731,26.201-14,40.201-18.8s28.861-7.2,44.6-7.2c25.438,0,44.878,7.186,58.338,21.533
	c0.189-4.152,0.299-8.325,0.299-12.524c0-32.298-5.676-63.268-16.068-91.98L2.958,243.906z"/>
<path id="spal7" fill="none" stroke="#243665" stroke-width="50" stroke-miterlimit="10" d="M443.288,96.042"/>
<path id="spal8" fill="none" stroke="#243665" stroke-width="50" stroke-miterlimit="10" d="M689.223,177.071"/>
<path id="spal9" fill="none" stroke="#243665" stroke-width="50" stroke-miterlimit="10" d="M714.597,211.738"/>
<path id="spal10" fill="#8BD8BD" d="M71.489,395.491c-3.869-2.131-8.2-4.063-13-5.8c-4.8-1.731-9.738-3.662-14.8-5.8
	c-6.137-2.4-12.269-5.2-18.4-8.4c-1.55-0.808-3.065-1.663-4.546-2.565c7.737,19.315,17.64,37.525,29.407,54.339
	c2.897,0.407,5.81,0.627,8.739,0.627c8.8,0,15.2-1.463,19.2-4.4c4-2.931,6-7.063,6-12.399c0-3.2-1.138-6.063-3.4-8.601
	C78.42,399.96,75.352,397.629,71.489,395.491z"/>
<path id="spal11" fill="#8BD8BD" d="M292.487,409.691c7.199-9.2,10.8-24.063,10.8-44.6c0-35.731-11.469-53.601-34.4-53.601
	c-11.469,0-22.8,6-34,18v81.2c5.332,4.8,10.663,8.138,16,10c5.332,1.869,10.531,2.8,15.601,2.8
	C276.618,423.491,285.287,418.892,292.487,409.691z"/>
<path id="spal12" fill="#8BD8BD" d="M503.292,409.092v-34.801c-20.801,2.938-35.199,7.2-43.199,12.801c-8,5.6-12,12.269-12,20
	c0,6.399,2.063,11.137,6.199,14.199c4.131,3.069,9.662,4.601,16.6,4.601c6.662,0,12.4-1.463,17.201-4.4
	C492.891,418.561,497.954,414.429,503.292,409.092z"/>
</svg>
