<?xml version="1.0" encoding="utf-8"?>
<!-- Generator: Adobe Illustrator 15.0.0, SVG Export Plug-In . SVG Version: 6.00 Build 0)  -->
<!DOCTYPE svg PUBLIC "-//W3C//DTD SVG 1.1//EN" "http://www.w3.org/Graphics/SVG/1.1/DTD/svg11.dtd">
<svg version="1.1"
	 id="svg24885" xmlns:dc="http://purl.org/dc/elements/1.1/" xmlns:rdf="http://www.w3.org/1999/02/22-rdf-syntax-ns#" xmlns:cc="http://creativecommons.org/ns#" xmlns:svg="http://www.w3.org/2000/svg" inkscape:version="0.91 r13725" sodipodi:docname="Bosch-Logo (1).svg" xmlns:inkscape="http://www.inkscape.org/namespaces/inkscape" xmlns:sodipodi="http://sodipodi.sourceforge.net/DTD/sodipodi-0.dtd"
	 xmlns="http://www.w3.org/2000/svg" xmlns:xlink="http://www.w3.org/1999/xlink" x="0px" y="0px" width="250px" height="57.213px"
	 viewBox="0 0 250 57.213" enable-background="new 0 0 250 57.213" xml:space="preserve">
<sodipodi:namedview  id="namedview1646" fit-margin-bottom="0" inkscape:window-height="738" fit-margin-right="0" inkscape:pageshadow="2" inkscape:pageopacity="0" inkscape:window-width="1280" inkscape:window-y="-8" inkscape:current-layer="svg24885" inkscape:window-x="-8" inkscape:window-maximized="1" fit-margin-top="0" inkscape:cy="67.760837" pagecolor="#ffffff" borderopacity="1" inkscape:zoom="0.36732437" objecttolerance="10" inkscape:cx="153.58964" guidetolerance="10" bordercolor="#666666" gridtolerance="10" fit-margin-left="0" showgrid="false">
	</sodipodi:namedview>
<g id="g26531" transform="matrix(0.40694283,0,0,0.40694283,-115.38992,-156.77321)">
	<g id="q57" transform="matrix(6.450046,0,0,-6.450046,-2654.615,2342.933)">
		<g id="xfrm58" transform="matrix(0.335998,0,0,0.335998,407.9057,266.2093)">
			<path id="path3190" inkscape:connector-curvature="0" fill="#EC1B24" d="M176.16,66.626c0,3.563-2.63,6.029-8.15,6.029h-11.06
				V60.503h11.33C172.9,60.503,176.16,62.148,176.16,66.626L176.16,66.626z M174.17,90.746c0,3.474-2.36,5.85-5.89,5.85h-11.33
				V85.082h11.06C171.99,85.082,174.17,88.005,174.17,90.746z M192.65,64.891c0-10.419-9.6-17.271-19.3-17.271h-31.62v61.86h28.99
				c11.149,0,19.21-5.57,19.21-16.996c0-9.777-8.51-12.701-8.51-12.701C181.42,79.691,192.65,77.132,192.65,64.891"/>
		</g>
	</g>
	<g id="q59" transform="matrix(6.450046,0,0,-6.450046,-2654.615,2342.933)">
		<g id="xfrm60" transform="matrix(0.335998,0,0,0.335998,407.9057,266.2093)">
			<path id="path3194" inkscape:connector-curvature="0" fill="#EC1B24" d="M239.98,78.594c0,9.686-4.44,17.544-13.22,17.544
				c-8.79,0-13.14-7.859-13.14-17.544c0-9.776,4.35-17.633,13.14-17.633C235.54,60.961,239.98,68.818,239.98,78.594z M255.2,78.594
				c0-18.182-10.42-32.436-28.44-32.436c-17.94,0-28.45,14.254-28.45,32.436c0,18.092,10.51,32.436,28.44,32.436
				C244.78,111.03,255.2,96.686,255.2,78.594"/>
		</g>
	</g>
	<g id="q61" transform="matrix(6.450046,0,0,-6.450046,-2654.615,2342.933)">
		<g id="xfrm62" transform="matrix(0.335998,0,0,0.335998,407.9057,266.2093)">
			<path id="path3198" inkscape:connector-curvature="0" fill="#EC1B24" d="M308.33,66.352c0-13.614-12.32-20.194-23.911-20.194
				c-13.409,0-20.3,5.117-25.729,11.605l9.87,9.687c4.17-5.301,9.61-7.952,15.68-7.952c4.981,0,8.329,2.467,8.329,6.123
				c0,3.928-2.959,5.152-11.059,6.853l-2.17,0.456c-9.75,2.047-17.76,7.583-17.76,18.639c0,12.15,9.88,19.461,22.93,19.461
				c11.05,0,18.21-4.75,22.56-9.68l-9.61-9.507c-2.991,3.199-7.52,5.757-12.68,5.757c-3.531,0-7.52-1.644-7.52-5.757
				c0-3.746,4.15-5.105,9.42-6.213l2.179-0.457C297.68,83.321,308.33,80.604,308.33,66.352"/>
		</g>
	</g>
	<g id="q63" transform="matrix(6.450046,0,0,-6.450046,-2654.615,2342.933)">
		<g id="xfrm64" transform="matrix(0.335998,0,0,0.335998,407.9057,266.2093)">
			<path id="path3202" inkscape:connector-curvature="0" fill="#EC1B24" d="M367.17,59.591c-6.34-9.137-12.231-13.433-24.46-13.433
				c-17.39,0-28.63,14.437-28.63,32.803c0,17.451,10.15,31.979,28.81,31.979c10.24,0,17.581-4.02,23.83-13.432l-12.5-8.315
				c-2.54,4.387-5.8,6.945-11.239,6.945c-6.881,0-13.5-6.156-13.5-17.178c0-12.353,7.16-17.999,13.96-17.999
				c5.881,0,8.6,2.923,11.141,7.127L367.17,59.591"/>
		</g>
	</g>
	<g id="q65" transform="matrix(6.450046,0,0,-6.450046,-2654.615,2342.933)">
		<g id="xfrm66" transform="matrix(0.335998,0,0,0.335998,407.9057,266.2093)">
			<path id="path3206" inkscape:connector-curvature="0" fill="#EC1B24" d="M425.199,47.621h-16.311v24.395h-18.76V47.621H373.92
				v61.86h16.209V86.727h18.76v22.753h16.311V47.621"/>
		</g>
	</g>
</g>
</svg>
