<?xml version="1.0" encoding="utf-8"?>
<!-- Generator: Adobe Illustrator 15.0.0, SVG Export Plug-In . SVG Version: 6.00 Build 0)  -->
<!DOCTYPE svg PUBLIC "-//W3C//DTD SVG 1.1//EN" "http://www.w3.org/Graphics/SVG/1.1/DTD/svg11.dtd">
<svg version="1.1" id="Ebene_1" xmlns="http://www.w3.org/2000/svg" xmlns:xlink="http://www.w3.org/1999/xlink" x="0px" y="0px"
	 width="841.89px" height="170px" viewBox="0 210.14 841.89 170" enable-background="new 0 210.14 841.89 170" xml:space="preserve"
	>
<g>
	
		<linearGradient id="SVGID_1_" gradientUnits="userSpaceOnUse" x1="-0.0303" y1="578.1538" x2="14.6842" y2="566.2026" gradientTransform="matrix(3.2331 0 0 -3.2331 -0.9489 2143.4248)">
		<stop  offset="0" style="stop-color:#FFFFFF"/>
		<stop  offset="1" style="stop-color:#451F3B"/>
	</linearGradient>
	<polygon opacity="0.21" fill="url(#SVGID_1_)" enable-background="new    " points="0,270.806 0,279.535 48.819,310.25 
		48.819,310.25 	"/>
	
		<linearGradient id="SVGID_2_" gradientUnits="userSpaceOnUse" x1="9037.8896" y1="-3784.2061" x2="9051.3398" y2="-3795.1299" gradientTransform="matrix(-3.2331 0 0 3.2331 29317.3105 12582.8418)">
		<stop  offset="0" style="stop-color:#FFFFFF"/>
		<stop  offset="1" style="stop-color:#451F3B"/>
	</linearGradient>
	<polygon opacity="0.21" fill="url(#SVGID_2_)" enable-background="new    " points="96.022,351.632 96.022,342.904 55.609,310.25 
		55.609,310.25 	"/>
	<polygon fill="#E6273F" points="104.428,270.806 104.428,219.4 55.609,258.843 55.609,310.25 	"/>
	<polygon fill="#C21F3D" points="8.729,291.497 8.729,342.904 48.819,310.25 48.819,258.843 	"/>
	
		<linearGradient id="SVGID_3_" gradientUnits="userSpaceOnUse" x1="17.5342" y1="569.9087" x2="29.9814" y2="569.9087" gradientTransform="matrix(3.2331 0 0 -3.2331 -0.9489 2143.4248)">
		<stop  offset="0" style="stop-color:#A81F3D"/>
		<stop  offset="0.0736" style="stop-color:#B01F3D"/>
		<stop  offset="0.2203" style="stop-color:#BA1F3D"/>
		<stop  offset="0.4267" style="stop-color:#C01F3D"/>
		<stop  offset="1" style="stop-color:#C21F3D"/>
	</linearGradient>
	<polygon fill="url(#SVGID_3_)" points="96.022,291.497 96.022,342.904 55.609,310.25 55.609,258.843 	"/>
	
		<linearGradient id="SVGID_4_" gradientUnits="userSpaceOnUse" x1="0.3296" y1="581.0581" x2="15.4297" y2="581.0581" gradientTransform="matrix(3.2331 0 0 -3.2331 -0.9489 2143.4248)">
		<stop  offset="0" style="stop-color:#E83B54"/>
		<stop  offset="0.3316" style="stop-color:#E83851"/>
		<stop  offset="0.7437" style="stop-color:#E73047"/>
		<stop  offset="1" style="stop-color:#E6273F"/>
	</linearGradient>
	<polygon fill="url(#SVGID_4_)" points="0,270.806 0,219.4 48.819,258.843 48.819,310.25 	"/>
	
		<linearGradient id="SVGID_5_" gradientUnits="userSpaceOnUse" x1="5.0771" y1="574.3716" x2="14.8796" y2="566.41" gradientTransform="matrix(3.2331 0 0 -3.2331 -0.9489 2143.4248)">
		<stop  offset="0" style="stop-color:#811E3C"/>
		<stop  offset="1" style="stop-color:#451F3B"/>
	</linearGradient>
	<polygon opacity="0.21" fill="url(#SVGID_5_)" enable-background="new    " points="17.135,284.708 13.255,287.941 48.819,310.25 
		48.819,310.25 	"/>
	<polygon fill="#EF8796" points="96.022,291.821 55.609,258.843 55.932,258.843 96.022,291.497 	"/>
	<polygon fill="#C21F3D" points="48.819,310.25 0,270.806 0.323,270.482 49.143,309.925 	"/>
	<g>
		
			<linearGradient id="SVGID_6_" gradientUnits="userSpaceOnUse" x1="41.4375" y1="1555.481" x2="41.4375" y2="1526.3541" gradientTransform="matrix(3.2331 0 0 -3.2331 303.305 5264.7373)">
			<stop  offset="0" style="stop-color:#78818F"/>
			<stop  offset="0.4568" style="stop-color:#455062"/>
		</linearGradient>
		<path fill="url(#SVGID_6_)" d="M187.194,236.858l-4.203,23.925c-3.233-2.586-7.113-3.88-10.992-3.88h-7.113
			c-10.669,0-20.691,8.406-22.631,19.075l-2.91,17.135l-1.94,11.64c-0.97,5.496,0.323,10.992,3.556,14.871
			c3.233,3.881,8.083,6.143,13.579,6.143h3.879l0,0h12.286c6.466,0,12.286-4.85,13.256-11.314l1.293-7.76l0,0l1.617-9.376
			l0.323-1.94l10.346-57.872h-10.346V236.858z M177.172,293.437L177.172,293.437l-3.233,17.459c-0.323,2.264-2.586,4.203-4.85,4.203
			h-14.549c-2.263,0-4.526-0.971-5.82-2.588c-1.293-1.615-1.939-3.879-1.293-6.465l4.526-25.865l0.646-2.91
			c0.97-5.82,6.79-10.669,12.286-10.669h8.406c3.233,0,5.82,0.97,7.76,2.91l0.323,0.323L177.172,293.437z M324.6,256.903
			L324.6,256.903c-0.97,0-1.617,0-2.586,0c-6.466-0.323-17.135-0.646-22.631,12.286c-0.323,0.647-0.647,1.617-0.97,2.263
			l9.699,3.233c0.323-0.647,0.323-0.97,0.646-1.617c2.586-6.143,6.143-6.466,12.609-6.143c0.97,0,1.94,0,2.91,0l0,0
			c2.586,0,4.526,0.97,5.819,2.587c1.293,1.616,1.94,3.879,1.617,6.466l-1.617,8.729h-18.428c-10.993,0-21.015,8.406-22.955,19.399
			v0.969c-0.97,5.174,0.323,10.346,3.557,14.227c3.233,3.879,7.759,5.818,12.932,5.818h17.135c6.466,0,12.286-4.85,13.255-11.314
			l1.293-7.438c0-0.322,0-0.646,0.323-0.646l2.586-14.872l0,0l0,0l2.263-12.932c0.97-5.496-0.323-10.993-3.88-14.872
			C334.945,259.167,330.096,256.903,324.6,256.903z M325.893,310.896c-0.323,2.264-2.586,3.879-4.85,3.879h-15.519
			c-2.263,0-3.879-0.646-5.173-2.264c-1.293-1.293-1.617-3.555-1.293-5.496v-0.969c0.97-5.82,6.789-10.993,12.932-10.993h16.488
			L325.893,310.896z M274.811,268.219h12.609l1.94-10.346H276.75l1.293-7.759l-10.346-1.94l-1.617,9.699h-6.143l-1.94,10.346h6.143
			l-6.789,39.12c-0.97,6.143,0.97,10.021,2.91,12.285c3.233,3.881,8.729,5.82,15.842,5.82h3.557l1.939-10.346h-5.173
			c-3.556,0-6.143-0.324-7.112-1.617c-0.324-0.322-1.293-1.617-0.97-4.203L274.811,268.219z M231.487,256.903L231.487,256.903
			c-0.97,0-1.617,0-2.586,0c-6.466-0.323-17.135-0.646-22.631,12.286c-0.323,0.647-0.646,1.617-0.97,2.263l9.699,3.233
			c0.323-0.647,0.323-0.97,0.647-1.617c2.586-6.143,6.143-6.466,12.609-6.143c0.97,0,1.94,0,2.91,0l0,0
			c2.586,0,4.526,0.97,5.819,2.587c1.293,1.616,1.94,3.879,1.617,6.466l-1.617,8.729h-18.428c-10.993,0-21.015,8.406-22.955,19.399
			v0.969c-0.97,5.174,0.323,10.346,3.556,14.227c3.233,3.879,7.759,5.818,12.932,5.818h17.135c6.466,0,12.286-4.85,13.256-11.314
			l1.293-7.438c0-0.322,0-0.646,0.323-0.646l2.586-14.872l0,0l0,0l2.263-12.932c0.97-5.496-0.323-10.993-3.879-14.872
			C241.833,259.167,236.983,256.903,231.487,256.903z M232.781,310.896c-0.324,2.264-2.586,3.879-4.85,3.879h-15.519
			c-2.263,0-3.879-0.646-5.173-2.264c-1.293-1.293-1.616-3.555-1.293-5.496v-0.969c0.97-5.82,6.789-10.993,12.932-10.993h16.489
			L232.781,310.896z M622.365,256.58h-4.85c-12.932,0-24.895,10.022-27.158,22.955l-1.293,6.789l-2.91,16.812
			c-1.615,9.375,3.234,17.781,12.287,20.691c2.908,0.971,6.789,1.617,10.992,1.617c5.818,0,12.285-0.971,17.135-2.264l5.172-1.293
			l-2.586-10.023l-5.172,1.295c-7.76,2.262-18.105,2.262-21.662,0.969c-3.232-0.969-6.143-4.203-5.174-9.053l1.295-6.789h30.391
			c4.85,0,9.053-3.556,9.699-8.083l1.939-11.639c0.969-5.819-0.324-11.315-3.881-15.195
			C633.035,258.843,628.185,256.58,622.365,256.58z M630.125,276.625l-1.939,11.316h-28.129l0.971-6.466
			c1.293-7.759,9.053-14.225,16.811-14.225h4.85c2.588,0,4.85,0.97,6.145,2.586C630.125,271.452,630.447,274.039,630.125,276.625z
			 M562.23,256.58h-6.789c-6.143,0-12.287,2.586-16.49,7.113c0-0.323-0.322-0.323-0.646-0.646
			c-3.555-4.203-8.404-6.466-14.225-6.466h-4.203c-5.82,0-10.992,1.94-15.842,5.173l0.646-4.203h-8.406l-3.557,20.368
			c-0.322,0.646-0.322,1.293-0.322,1.94l-7.76,44.293h10.67l7.436-42.354c1.293-8.083,9.375-14.873,17.135-14.873h4.203
			c2.586,0,4.85,0.97,6.143,2.587c1.617,1.616,1.939,4.203,1.617,6.789l-8.406,47.526h10.668l8.084-45.909l0,0
			c0.969-6.143,7.111-11.316,13.256-11.316h6.789c2.586,0,4.85,0.97,6.143,2.586c1.617,1.617,1.939,4.203,1.617,6.79l-8.406,47.527
			h10.668l8.084-45.91c0.969-5.82-0.324-11.316-3.881-15.519C572.898,258.843,567.726,256.903,562.23,256.58z M688.966,266.279
			l-1.617-10.346c0,0-4.203,0.323-6.467,0.646c-2.262,0.323-5.496,0.97-6.465,1.293c-2.91,0.97-6.143,2.263-9.053,3.879l0.646-4.526
			h-8.406l-3.232,17.782c-0.324,0.646-0.324,1.293-0.324,1.94l-8.406,46.879h10.67l8.082-45.263
			c0.971-5.173,4.85-8.083,13.256-10.992c0.646-0.323,3.232-0.647,6.143-1.293C686.703,266.603,688.966,266.279,688.966,266.279z
			 M719.357,287.618c-1.293-0.323-2.91-0.97-4.527-1.617c-1.939-0.646-4.203-1.616-6.143-2.263c-7.76-2.91-7.76-5.173-7.436-7.759
			c0.646-4.526,5.174-8.406,9.699-8.406c1.293,0,2.586,0,3.879,0c9.699-0.323,11.641,0.323,12.287,4.85c0,0.323,0,0.97,0,1.293
			l10.346-0.323c0-0.97,0-1.94-0.324-2.586c-2.264-14.549-15.195-13.902-22.955-13.902c-1.293,0-2.262,0-3.557,0
			c-9.699,0-18.428,7.436-20.045,17.135c-2.262,13.256,10.023,18.105,13.902,19.398c1.939,0.647,4.203,1.617,6.143,2.263
			c1.617,0.646,3.234,1.293,4.527,1.94c7.436,2.91,7.436,7.436,7.113,9.375c-0.648,4.527-5.174,8.406-9.699,8.406l0,0
			c-1.295,0-2.91,0-3.881,0c-10.668,0.324-14.549-0.322-15.518-4.85c0-0.322,0-0.969,0-1.293l-10.346,0.324
			c0,0.969,0,1.939,0.322,2.586c1.939,12.285,13.256,13.902,21.984,13.902c1.293,0,6.467,0,7.76,0l0,0l0,0
			c9.699,0,18.428-7.436,20.045-17.135C734.875,299.257,729.703,291.174,719.357,287.618z M419.975,256.58h-7.76
			c-11.315,0-21.338,8.729-23.278,19.722l-4.85,27.159c-0.97,5.818,0.323,11.314,3.88,15.195c3.556,4.203,8.406,6.465,14.225,6.465
			h7.759c11.316,0,21.338-8.729,23.278-19.721l4.85-27.158c0.971-5.819-0.322-11.316-3.879-15.195
			C430.968,258.843,425.794,256.58,419.975,256.58z M427.734,276.625l-4.85,27.158c-0.969,6.143-7.112,11.316-13.255,11.316h-7.759
			c-2.586,0-4.85-0.971-6.143-2.588c-1.293-1.615-1.94-4.201-1.617-6.789l4.85-27.157c0.97-6.143,7.113-11.315,13.255-11.315h7.76
			c2.587,0,4.849,0.97,6.144,2.586C427.734,271.452,428.058,274.039,427.734,276.625z M371.802,257.874
			c0.97-5.173,2.91-10.346,15.519-10.993l3.88-0.323c1.617,0,2.586,0,2.586,0l1.94-10.346c0,0-0.97,0-4.526,0
			c-1.617,0-2.91,0.323-4.526,0.323c-14.872,0.97-22.955,7.436-25.218,19.722l-0.323,1.617h-6.143l-1.94,10.346h6.143
			l-10.993,61.429c5.82,0.969,10.993-2.91,12.286-8.406l9.376-53.022h12.609l1.94-10.346H371.802z M483.666,255.934
			c0,0-4.203,0.323-6.465,0.646c-2.264,0.323-5.496,0.97-6.467,1.293c-2.91,0.97-6.143,2.263-9.053,3.879l0.646-4.526h-8.406
			l-3.232,17.782c-0.324,0.646-0.324,1.293-0.324,1.94l-8.404,46.879h10.668l8.084-45.263c0.969-5.173,4.85-8.083,13.254-10.992
			c0.646-0.323,3.234-0.647,6.143-1.293c2.91-0.323,5.174-0.646,5.174-0.646L483.666,255.934z"/>
	</g>
	<g>
		<path fill="#E6273F" d="M337.208,345.166c3.233,0,5.173,0.324,7.759,0.971v3.232c0,0-3.879-0.322-6.79-0.322
			c-3.233,0-4.203,0.646-4.203,7.436c0,4.85,0.97,7.436,4.203,7.436c3.233,0,6.79-0.322,6.79-0.322v3.232
			c-1.94,0.646-4.526,0.971-7.759,0.971c-5.496,0-7.436-4.203-7.436-11.316S331.389,345.166,337.208,345.166z"/>
		<path fill="#E6273F" d="M346.908,351.308h3.556l0.647,1.941c0.97-0.971,2.586-2.264,4.526-2.264c0.647,0,1.293,0,1.617,0.322
			v4.203c-0.323,0-1.293,0-2.263,0c-1.616,0-2.91,0.324-4.203,1.617v10.023h-4.203v-15.844H346.908z"/>
		<path fill="#E6273F" d="M365.66,351.308c4.526,0,6.789,0.648,6.789,5.82c0,2.91-1.616,3.879-4.526,3.879h-5.173
			c0,2.91,0.97,2.91,3.233,2.91c2.586,0,3.556,0,5.819-0.322v2.908c-2.263,0.971-5.819,0.971-8.083,0.971
			c-4.203,0-5.173-2.264-5.173-8.082C358.87,352.279,360.486,351.308,365.66,351.308z M366.953,358.099
			c0.97,0,1.293-0.324,1.293-1.295c0-1.939-0.323-2.262-2.263-2.262c-2.263,0-2.91,0-2.91,3.557H366.953z"/>
		<path fill="#E6273F" d="M374.065,361.654c0-2.262,1.293-4.201,4.526-4.201h4.526v-0.971c0-1.617-0.647-1.939-2.263-1.939
			c-1.293,0-5.496,0.322-6.79,0.322v-2.586c1.94-0.971,4.203-0.971,7.113-0.971c3.556,0,5.819,1.295,5.819,5.174v10.992h-3.233
			l-0.97-1.617c-0.324,0.324-2.263,1.941-4.85,1.941c-2.91,0-4.526-2.264-4.526-4.203v-1.941H374.065z M379.885,364.242
			c1.617,0,3.557-1.293,3.557-1.293v-2.91l-3.88,0.322c-0.97,0-1.293,0.971-1.293,1.617v0.646
			C378.269,363.917,379.238,364.242,379.885,364.242z"/>
		<path fill="#E6273F" d="M389.261,352.279l2.586-0.971l0.646-4.525h3.557v4.525h3.556v3.234h-3.556v6.465
			c0,2.264,0.646,2.91,1.293,3.234l1.94,0.646v2.586h-3.556c-2.263,0-3.88-1.617-3.88-5.82v-7.111h-2.586V352.279z"/>
		<path fill="#E6273F" d="M401.546,346.458c0-0.322,0.323-0.646,0.646-0.646h3.233c0.323,0,0.646,0.324,0.646,0.646v2.588
			c0,0.322-0.323,0.646-0.646,0.646h-3.233c-0.323,0-0.646-0.324-0.646-0.646V346.458z M401.546,351.308h4.203v15.844h-4.203
			V351.308z"/>
		<path fill="#E6273F" d="M412.215,351.308l3.557,10.994l3.556-10.994h4.527l-5.82,15.844h-4.85l-5.496-15.844H412.215z"/>
		<path fill="#E6273F" d="M430.644,351.308c4.525,0,6.789,0.648,6.789,5.82c0,2.91-1.615,3.879-4.525,3.879h-5.174
			c0,2.91,0.971,2.91,3.234,2.91c2.586,0,3.555,0,5.818-0.322v2.908c-2.264,0.971-5.818,0.971-8.082,0.971
			c-4.203,0-5.174-2.264-5.174-8.082C423.855,352.279,425.794,351.308,430.644,351.308z M431.937,358.099
			c0.971,0,1.293-0.324,1.293-1.295c0-1.939-0.322-2.262-2.262-2.262c-2.264,0-2.91,0-2.91,3.557H431.937z"/>
		<path fill="#E6273F" d="M447.457,343.873h4.203v8.406c1.615-0.646,3.555-0.971,4.85-0.971c4.525,0,5.172,3.234,5.172,8.406
			c0,4.85-1.293,8.084-5.172,8.084c-1.941,0-3.881-0.971-4.85-1.941l-0.646,1.617h-3.557V343.873z M455.214,363.917
			c1.295,0,1.941-0.969,1.941-4.525c0-4.203-0.646-4.85-1.941-4.85c-1.293,0-2.586,0.322-3.879,0.646v7.76
			C452.306,363.595,453.599,363.917,455.214,363.917z"/>
		<path fill="#E6273F" d="M465.884,351.308l2.586,10.994c0.324,1.293,1.293,1.293,1.617,1.293l3.232-12.287h4.527l-5.496,21.016
			l-2.264,2.91h-2.91l2.264-8.082c-2.264,0-3.879-0.971-4.85-4.203l-3.232-11.963h4.525V351.308z"/>
		<path fill="#E6273F" d="M487.869,345.49h9.053c4.527,0,6.143,2.586,6.143,5.818c0,1.941-0.969,4.203-2.908,4.85
			c1.939,0.324,3.232,2.264,3.232,4.85c0,4.203-1.939,6.467-6.467,6.467h-9.053V345.49z M496.599,353.896
			c1.615,0,2.262-0.971,2.262-2.588c0-1.939-1.293-2.586-2.262-2.586h-4.527v4.85h4.527V353.896z M496.921,363.595
			c1.293,0,2.586-0.646,2.586-2.91c0-1.617-0.646-3.232-2.586-3.232h-4.85v6.143H496.921z"/>
		<path fill="#E6273F" d="M505.328,346.458c0-0.322,0.324-0.646,0.646-0.646h3.232c0.324,0,0.648,0.324,0.648,0.646v2.588
			c0,0.322-0.324,0.646-0.648,0.646h-3.232c-0.322,0-0.646-0.324-0.646-0.646V346.458z M505.328,351.308h4.203v15.844h-4.203
			V351.308z"/>
		<path fill="#E6273F" d="M512.441,351.308h3.557l0.646,1.941c0.969-0.971,2.586-2.264,4.525-2.264c0.646,0,1.293,0,1.617,0.322
			v4.203c-0.324,0-1.293,0-2.264,0c-1.617,0-2.91,0.324-4.203,1.617v10.023h-4.203v-15.844H512.441z"/>
		<path fill="#E6273F" d="M524.08,352.279l2.586-0.971l0.646-4.525h3.557v4.525h3.557v3.234h-3.557v6.465
			c0,2.264,0.646,2.91,1.293,3.234l1.941,0.646v2.586h-3.557c-2.264,0-3.881-1.617-3.881-5.82v-7.111h-2.586V352.279z"/>
		<path fill="#E6273F" d="M536.689,343.873h4.203v9.377c1.293-0.971,2.586-1.941,5.172-1.941c3.557,0,4.85,2.588,4.85,5.498v10.668
			h-4.525v-10.668c0-1.617-0.646-2.264-1.617-2.264c-1.617,0-2.586,0.322-3.879,1.293v11.316h-4.203V343.873z"/>
		<path fill="#E6273F" d="M553.5,363.917c0-0.322,0.324-0.646,0.648-0.646h2.586c0.646,0,0.646,0.324,0.646,0.646v2.586
			c0,0.648-0.324,0.648-0.646,0.648h-2.586c-0.324,0-0.648-0.324-0.648-0.648V363.917z"/>
		<path fill="#E6273F" d="M568.695,350.015c0-3.879,2.588-4.525,4.85-4.525c0,0,7.76,0.322,9.699,0.322v3.557h-8.729
			c-1.617,0-1.617,0.971-1.617,1.617v3.557l8.73,0.322v3.557l-8.73,0.324v3.557c0,1.615,0.971,1.615,1.941,1.615h8.404v3.557
			c-1.615,0.324-9.375,0.646-9.375,0.646c-1.939,0-5.172-0.322-5.172-4.525v-13.58H568.695z"/>
		<path fill="#E6273F" d="M585.507,351.308h3.234l0.969,1.617c1.293-0.969,2.586-1.939,5.174-1.939c3.557,0,4.85,2.586,4.85,5.496
			v10.67h-4.203v-10.67c0-1.617-0.646-2.264-1.617-2.264c-1.617,0-2.586,0.324-3.879,1.293v11.316h-4.203v-15.52H585.507z"/>
		<path fill="#E6273F" d="M603.613,361.332c-1.293-0.971-1.617-2.91-1.617-4.527c0-3.879,1.941-5.818,5.496-5.818h9.699v2.586
			l-1.615,0.646c0.322,0.646,0.646,1.293,0.646,3.234c0,2.262-0.971,5.496-5.496,5.496h-3.557c-0.324,0-1.293,0-1.293,0.646
			s0.646,0.969,1.293,0.969h4.85c2.91,0,4.85,1.617,4.85,4.85v1.617c0,2.264-0.971,4.525-4.85,4.525h-4.527
			c-2.908,0-4.85-1.615-4.85-4.525v-1.939l1.295-1.617c-0.971-0.322-1.617-1.617-1.617-2.91
			C601.673,362.949,602.32,361.654,603.613,361.332z M607.816,359.392h1.617c1.615,0,1.939-0.971,1.939-2.588
			c0-1.615-0.646-2.262-1.939-2.262h-1.617c-1.617,0-1.939,0.969-1.939,2.262C605.876,358.421,606.523,359.392,607.816,359.392z
			 M607.816,372.001h2.586c1.617,0,1.617-0.648,1.617-1.617v-1.293c0-0.971-0.324-1.293-1.617-1.617h-3.232
			c-0.646,0-1.293,0-1.293,0v2.586C605.876,372.001,606.845,372.001,607.816,372.001z"/>
		<path fill="#E6273F" d="M618.486,346.458c0-0.322,0.322-0.646,0.646-0.646h3.232c0.322,0,0.646,0.324,0.646,0.646v2.588
			c0,0.322-0.324,0.646-0.646,0.646h-3.232c-0.324,0-0.646-0.324-0.646-0.646V346.458z M618.808,351.308h4.203v15.844h-4.203
			V351.308z"/>
		<path fill="#E6273F" d="M625.597,351.308h3.234l0.969,1.617c1.293-0.969,2.586-1.939,5.174-1.939c3.557,0,4.85,2.586,4.85,5.496
			v10.67h-4.203v-10.67c0-1.617-0.646-2.264-1.617-2.264c-1.617,0-2.586,0.324-3.879,1.293v11.316h-4.203v-15.52H625.597z"/>
		<path fill="#E6273F" d="M648.876,351.308c4.525,0,6.789,0.648,6.789,5.82c0,2.91-1.617,3.879-4.527,3.879h-5.172
			c0,2.91,0.969,2.91,3.232,2.91c2.586,0,3.557,0,5.82-0.322v2.908c-2.264,0.971-5.82,0.971-8.084,0.971
			c-4.201,0-5.172-2.264-5.172-8.082C641.763,352.279,643.703,351.308,648.876,351.308z M649.845,358.099
			c0.971,0,1.293-0.324,1.293-1.295c0-1.939-0.322-2.262-2.262-2.262c-2.264,0-2.91,0-2.91,3.557H649.845z"/>
		<path fill="#E6273F" d="M664.394,351.308c4.527,0,6.789,0.648,6.789,5.82c0,2.91-1.615,3.879-4.525,3.879h-5.174
			c0,2.91,0.971,2.91,3.234,2.91c2.586,0,3.557,0,5.818-0.322v2.908c-2.262,0.971-5.818,0.971-8.082,0.971
			c-4.203,0-5.174-2.264-5.174-8.082C657.605,352.279,659.544,351.308,664.394,351.308z M665.687,358.099
			c0.971,0,1.293-0.324,1.293-1.295c0-1.939-0.322-2.262-2.262-2.262c-2.264,0-2.91,0-2.91,3.557H665.687z"/>
		<path fill="#E6273F" d="M673.447,351.308h3.557l0.646,1.941c0.971-0.971,2.586-2.264,4.527-2.264c0.646,0,1.293,0,1.615,0.322
			v4.203c-0.322,0-1.293,0-2.264,0c-1.615,0-2.908,0.324-4.201,1.617v10.023h-4.203v-15.844H673.447z"/>
		<path fill="#E6273F" d="M686.056,355.511c0-2.586,0.971-4.203,4.203-4.203c2.91,0,7.436,0,8.406,0.971v2.586h-7.113
			c-0.971,0-1.293,0.324-1.293,0.971v0.646c0,0.971,0.646,0.971,1.293,0.971h3.879c2.91,0,4.203,1.939,4.203,4.201v1.617
			c0,3.232-1.939,4.203-3.879,4.203c-2.91,0-7.76,0-8.729-0.971v-2.586h7.436c0.322,0,0.969,0,0.969-0.969v-0.646
			c0-0.648-0.322-0.971-0.969-0.971h-3.881c-2.908,0-4.525-1.293-4.525-4.203V355.511L686.056,355.511z"/>
		<path fill="#E6273F" d="M709.011,343.873h4.203v8.406c1.615-0.646,3.557-0.971,4.85-0.971c4.525,0,5.172,3.234,5.172,8.406
			c0,4.85-1.293,8.084-5.172,8.084c-1.941,0-3.881-0.971-4.85-1.941l-0.646,1.617h-3.557V343.873z M717.093,363.917
			c1.293,0,1.939-0.969,1.939-4.525c0-4.203-0.646-4.85-1.939-4.85s-2.586,0.322-3.879,0.646v7.76
			C714.183,363.595,715.476,363.917,717.093,363.917z"/>
		<path fill="#E6273F" d="M727.763,351.308l2.586,10.994c0.322,1.293,1.293,1.293,1.617,1.293l3.232-12.287h4.525l-5.496,21.016
			l-2.262,2.91h-2.91l2.264-8.082c-2.264,0-3.881-0.971-4.85-4.203l-3.234-11.963h4.527V351.308z"/>
		<path fill="#E6273F" d="M756.537,345.166c3.232,0,5.174,0.324,7.76,0.971v3.232c0,0-3.881-0.322-6.789-0.322
			c-3.234,0-4.203,0.646-4.203,7.436c0,4.85,0.969,7.436,4.203,7.436c3.232,0,6.789-0.322,6.789-0.322v3.232
			c-1.939,0.646-4.527,0.971-7.76,0.971c-5.496,0-7.436-4.203-7.436-11.316S750.394,345.166,756.537,345.166z"/>
		<path fill="#E6273F" d="M766.236,343.873h4.203v9.377c1.293-0.971,2.586-1.941,5.174-1.941c3.555,0,4.85,2.588,4.85,5.498v10.668
			h-4.527v-10.668c0-1.617-0.646-2.264-1.617-2.264c-1.615,0-2.586,0.322-3.879,1.293v11.316h-4.203V343.873z"/>
		<path fill="#E6273F" d="M789.837,351.308c5.496,0,7.113,1.941,7.113,8.406c0,5.82-1.617,7.76-7.113,7.76s-7.113-2.264-7.113-7.76
			C782.402,352.925,784.341,351.308,789.837,351.308z M789.837,363.917c2.264,0,2.91-0.322,2.91-4.525c0-4.527-0.646-4.85-2.91-4.85
			c-2.586,0-2.91,0.646-2.91,4.85C786.605,363.595,787.574,363.917,789.837,363.917z"/>
		<path fill="#E6273F" d="M799.212,346.458c0-0.322,0.324-0.646,0.646-0.646h3.234c0.322,0,0.646,0.324,0.646,0.646v2.588
			c0,0.322-0.324,0.646-0.646,0.646h-3.234c-0.322,0-0.646-0.324-0.646-0.646V346.458z M799.537,351.308h4.203v15.844h-4.203
			V351.308z"/>
		<path fill="#E6273F" d="M811.5,351.308c1.615,0,4.85,0,7.436,0.971v2.586c0,0-2.91-0.322-5.496-0.322c-1.939,0-2.91,0-2.91,4.85
			c0,4.203,0.646,4.525,2.91,4.525c2.91,0,5.818-0.322,5.818-0.322v2.586c-2.262,1.293-5.172,0.971-7.436,0.971
			c-2.91,0-5.172-1.617-5.172-8.084C806.003,352.603,808.265,351.308,811.5,351.308z"/>
		<path fill="#E6273F" d="M827.341,351.308c4.525,0,6.789,0.648,6.789,5.82c0,2.91-1.617,3.879-4.525,3.879h-5.174
			c0,2.91,0.971,2.91,3.232,2.91c2.588,0,3.557,0,5.82-0.322v2.908c-2.264,0.971-5.82,0.971-8.082,0.971
			c-4.203,0-5.174-2.264-5.174-8.082C820.228,352.279,822.167,351.308,827.341,351.308z M828.634,358.099
			c0.969,0,1.293-0.324,1.293-1.295c0-1.939-0.324-2.262-2.264-2.262c-2.262,0-2.91,0-2.91,3.557H828.634z"/>
		<path fill="#E6273F" d="M836.07,363.917c0-0.322,0.324-0.646,0.646-0.646h2.586c0.648,0,0.648,0.324,0.648,0.646v2.586
			c0,0.648-0.324,0.648-0.648,0.648h-2.586c-0.322,0-0.646-0.324-0.646-0.648V363.917z"/>
	</g>
</g>
</svg>
