<?xml version="1.0" encoding="utf-8"?>
<!-- Generator: Adobe Illustrator 15.0.0, SVG Export Plug-In . SVG Version: 6.00 Build 0)  -->
<!DOCTYPE svg PUBLIC "-//W3C//DTD SVG 1.1//EN" "http://www.w3.org/Graphics/SVG/1.1/DTD/svg11.dtd">
<svg version="1.1"
	 id="svg2" xmlns:dc="http://purl.org/dc/elements/1.1/" xmlns:rdf="http://www.w3.org/1999/02/22-rdf-syntax-ns#" xmlns:cc="http://creativecommons.org/ns#" xmlns:svg="http://www.w3.org/2000/svg" inkscape:version="0.91 r13725" sodipodi:docname="DMG Mori logo.svg" xmlns:inkscape="http://www.inkscape.org/namespaces/inkscape" xmlns:sodipodi="http://sodipodi.sourceforge.net/DTD/sodipodi-0.dtd"
	 xmlns="http://www.w3.org/2000/svg" xmlns:xlink="http://www.w3.org/1999/xlink" x="0px" y="0px" width="250px" height="60.398px"
	 viewBox="0 0 250 60.398" enable-background="new 0 0 250 60.398" xml:space="preserve">
<sodipodi:namedview  units="px" id="namedview1607" fit-margin-bottom="1" inkscape:window-height="738" fit-margin-right="1" inkscape:pageshadow="2" inkscape:pageopacity="0" inkscape:window-width="1280" inkscape:guide-bbox="true" inkscape:window-y="-8" inkscape:current-layer="svg2" inkscape:window-x="-8" inkscape:window-maximized="1" fit-margin-top="1" inkscape:cy="-41.889201" pagecolor="#ffffff" borderopacity="1" inkscape:zoom="4" objecttolerance="10" inkscape:cx="129.22668" guidetolerance="10" bordercolor="#666666" showguides="true" gridtolerance="10" fit-margin-left="1" showgrid="false">
	<sodipodi:guide  id="guide4134" orientation="1,0" position="100.00001,36.774998"></sodipodi:guide>
</sodipodi:namedview>
<path id="path577" inkscape:connector-curvature="0" fill="#211E1E" d="M129.064,54.235h4.904v-1.199h-4.904v-3.219h5.31v-1.24
	H127.5v10.555h7.053v-1.24h-5.488V54.235z M106.164,54.235h4.904v-1.199h-4.904v-3.219h5.31v-1.24h-6.874v10.555h7.061v-1.24h-5.496
	V54.235z M140.633,48.576h-1.565v10.555h6.939v-1.256h-5.374V48.576z M120.504,53.156l-1.589-0.511
	c-0.794-0.267-1.832-0.632-1.832-1.629c0-1.038,0.916-1.727,2.278-1.727c1.386,0,2.44,0.932,2.789,1.386l0.729-1.184
	c-0.486-0.526-1.581-1.386-3.518-1.386c-1.954,0-3.867,1.184-3.867,2.95c0,1.873,1.224,2.465,2.586,2.87l1.727,0.527
	c1.086,0.332,1.832,0.835,1.832,1.953c0,0.835-0.729,1.792-2.44,1.792c-1.483,0-2.926-0.973-3.478-1.524l-0.713,1.135
	c0.43,0.39,0.875,0.738,1.386,0.981c0.632,0.324,1.524,0.607,2.805,0.607c2.951,0,4.053-1.71,4.053-2.991
	C123.252,54.373,121.963,53.643,120.504,53.156 M199.307,55.289l1.775-5.326l1.808,5.326H199.307z M200.166,48.576l-3.826,10.555
	h1.686l0.893-2.643h4.336l0.893,2.643h1.832l-3.843-10.555H200.166z M219.418,49.841h3.641v9.29h1.572v-9.29h3.64v-1.265h-8.853
	V49.841z M165,53.156l-1.589-0.511c-0.794-0.267-1.832-0.632-1.832-1.629c0-1.038,0.916-1.727,2.286-1.727
	c1.378,0,2.439,0.932,2.78,1.386l0.729-1.184c-0.486-0.526-1.58-1.386-3.51-1.386c-1.953,0-3.867,1.184-3.867,2.95
	c0,1.873,1.217,2.465,2.578,2.87l1.734,0.527c1.078,0.332,1.824,0.835,1.824,1.953c0,0.835-0.729,1.792-2.439,1.792
	c-1.484,0-2.927-0.973-3.479-1.524l-0.713,1.135c0.43,0.39,0.875,0.738,1.387,0.981c0.632,0.324,1.523,0.607,2.805,0.607
	c2.95,0,4.053-1.71,4.053-2.991C167.748,54.373,166.467,53.643,165,53.156 M209.885,59.131h1.564v-4.693h4.824v-1.224h-4.824v-3.397
	h5.148v-1.24h-6.713V59.131z M96.525,54.722h2.132v2.845c-0.794,0.471-1.5,0.633-2.562,0.633c-1.873,0-3.234-1.751-3.234-4.435
	c0-2.627,1.24-4.459,3.299-4.459c1.5,0,2.375,0.876,2.87,1.492l0.706-1.144c-0.503-0.551-1.622-1.548-3.575-1.548
	c-2.359,0-4.92,1.978-4.92,5.658c0,3.462,1.994,5.634,4.855,5.634c1.735,0,3.056-0.47,4.053-1.021v-4.839h-3.624V54.722z
	 M176.162,58.199c-1.872,0-3.227-1.889-3.227-4.557c0-2.586,1.314-4.337,3.211-4.337c1.523,0,2.318,0.981,2.74,1.532l0.713-1.159
	c-0.445-0.575-1.523-1.572-3.478-1.572c-2.821,0-4.815,2.505-4.815,5.536c0,3.089,1.564,5.756,4.84,5.756
	c1.727,0,2.618-0.526,3.656-1.564l-0.689-1.118C178.384,57.608,177.524,58.199,176.162,58.199 M190.852,53.011h-5.513v-4.435h-1.564
	v10.555h1.564v-4.839h5.513v4.839h1.58V48.576h-1.58V53.011z M151.438,48.576h-1.572v10.555h6.939v-1.256h-5.367V48.576z
	 M43.428,48.576H41.45l-4.556,4.921l5.026,5.634h2.076l-5.294-5.715L43.428,48.576z M35.273,59.131h1.564V48.576h-1.564V59.131z
	 M24.694,55.289l1.767-5.326l1.816,5.326H24.694z M25.545,48.576l-3.818,10.555h1.686l0.892-2.643h4.337l0.892,2.643h1.832
	l-3.843-10.555H25.545z M46.33,49.841h3.64v9.29h1.573v-9.29h3.64v-1.265H46.33V49.841z M59.325,59.131h1.589V48.576h-1.589V59.131z
	 M85.176,57.632l-4.88-9.056h-2.213v10.555h1.435V50.06l4.888,9.071h2.213V48.576h-1.443V57.632z M68.071,54.235h4.905v-1.199
	h-4.905v-3.219h5.31v-1.24h-6.875v10.555h7.053v-1.24h-5.488V54.235z"/>
<path id="path579" sodipodi:nodetypes="cccccccccsccccccssccccccscccscsscscssccccsscscsscsccccsccscscccsccccscccccccccsscscsscsccsscscsscscccccsccccccssccccccsccsccscsccsccscsc" inkscape:connector-curvature="0" fill="#8C969B" d="
	M238.389,27.468H249V1h-10.611V27.468z M149.372,2.557l-4.475,12.021h-0.438l-4.766-12.021C139.256,1.381,138.712,1,137.196,1
	h-13.165v26.468h9.68V11.442h0.486l6.185,14.51c0.446,1.095,0.933,1.517,2.213,1.517h3.534c1.273,0,1.719-0.381,2.205-1.517
	l6.186-14.51h0.494v16.026h9.963V1h-13.107C150.354,1,149.81,1.381,149.372,2.557 M95.416,18.088h7.361v0.194
	c0,1.89-0.689,2.603-1.03,2.87c-0.292,0.227-0.835,0.3-2.213,0.3h-4.661c-1.524,0-1.962-0.073-2.262-0.3
	c-0.438-0.341-1.078-1.589-1.078-6.915c0-5.334,0.64-6.501,1.078-6.842c0.3-0.227,0.738-0.308,2.262-0.308h4.418
	c1.475,0,1.913,0.113,2.165,0.308c0.34,0.26,0.98,0.567,1.029,2.684h10.109c-0.146-4.499-1.176-6.429-2.894-7.718
	C108.378,1.381,106.311,1,102.63,1H91.192c-3.583,0-5.456,0.494-6.777,1.516c-2.01,1.516-3.729,4.426-3.729,11.722
	s1.719,10.206,3.729,11.714c1.321,1.021,3.194,1.517,6.777,1.517h11.39c3.194,0,5.448-0.454,6.875-1.549
	c1.913-1.476,3.437-3.705,3.437-10.093v-3.218H95.416V18.088z M223.189,12.382c-0.292,0.227-0.836,0.3-2.748,0.3h-5.691V7.015h5.691
	c1.912,0,2.407,0.073,2.748,0.3c0.494,0.341,0.786,0.949,0.786,2.497C223.976,11.361,223.732,12,223.189,12.382 M235.073,8.523
	c0-3.664-0.737-4.985-2.262-6.161C231.49,1.341,229.568,1,226.14,1h-21.952v26.468h10.563v-9.071h5.156
	c2.156,0,2.594,0.146,3.088,0.486c0.543,0.381,0.836,0.762,0.933,2.724c0.098,2.27,0.024,3.932,0.024,5.861h10.846
	c0,0,0.033-4.005-0.072-6.583c-0.146-3.818-2.107-4.686-5.545-5.285v-0.081C233.16,14.919,235.073,13.444,235.073,8.523
	 M189.028,20.998c-0.292,0.228-0.786,0.309-2.262,0.309h-4.369c-1.468,0-1.962-0.081-2.253-0.309
	c-0.35-0.259-0.934-0.94-0.934-6.761c0-5.788,0.584-6.501,0.934-6.769c0.291-0.227,0.785-0.3,2.253-0.3h4.369
	c1.476,0,1.97,0.073,2.262,0.3c0.341,0.268,0.933,0.98,0.933,6.769C189.961,20.018,189.369,20.74,189.028,20.998 M197.078,2.516
	C195.757,1.494,193.893,1,190.301,1h-11.438c-3.583,0-5.447,0.494-6.77,1.516c-2.018,1.516-3.736,4.426-3.736,11.722
	s1.719,10.206,3.736,11.714c1.322,1.021,3.187,1.517,6.77,1.517h11.438c3.592,0,5.456-0.495,6.777-1.517
	c2.019-1.508,3.737-4.418,3.737-11.714S199.097,4.031,197.078,2.516 M61.685,2.557l-4.467,12.021h-0.446L52.014,2.557
	C51.568,1.381,51.033,1,49.509,1H36.352v26.468h9.671V11.442h0.486l6.193,14.51c0.438,1.095,0.932,1.517,2.205,1.517h3.534
	c1.281,0,1.719-0.382,2.213-1.517l6.185-14.51h0.486v16.026h9.971V1H64.189C62.666,1,62.13,1.381,61.685,2.557 M20.934,20.853
	c-0.583,0.454-1.475,0.641-3.826,0.641h-5.553V6.975h5.553c2.408,0,3.243,0.153,3.826,0.607c0.641,0.527,0.932,1.662,0.932,6.655
	C21.866,19.224,21.525,20.399,20.934,20.853 M29.235,3.238C27.167,1.649,24.176,1,18.729,1H1v26.468h17.729
	c5.447,0,8.438-0.608,10.506-2.197c2.359-1.808,3.486-4.418,3.486-11.033C32.721,7.623,31.594,5.045,29.235,3.238"/>
</svg>
