<?xml version="1.0" encoding="utf-8"?>
<!-- Generator: Adobe Illustrator 15.0.0, SVG Export Plug-In . SVG Version: 6.00 Build 0)  -->
<!DOCTYPE svg PUBLIC "-//W3C//DTD SVG 1.1//EN" "http://www.w3.org/Graphics/SVG/1.1/DTD/svg11.dtd">
<svg version="1.1" id="Ebene_1" xmlns="http://www.w3.org/2000/svg" xmlns:xlink="http://www.w3.org/1999/xlink" x="0px" y="0px"
	 width="434.529px" height="136.754px" viewBox="0 0 434.529 136.754" enable-background="new 0 0 434.529 136.754"
	 xml:space="preserve">
<g>
	<path fill="#000028" d="M68.593,136.754l0.129-33.526c0,0-6.875-1.349-10.121-2.61c-3.879-1.512-7.593-3.512-11.019-5.879
		c-4.313-2.98-8.317-6.477-11.832-10.363c-2.895-3.199-5.391-6.777-7.512-10.531c-1.473-2.613-2.641-5.406-3.574-8.261
		c-0.832-2.535-1.414-5.16-1.781-7.801c-0.332-2.371-0.457-4.781-0.387-7.172c0.058-2.027,0.293-4.054,0.68-6.047
		c0.457-2.375,1.085-4.734,1.941-7c0.851-2.246,1.851-4.457,3.152-6.476c1.84-2.856,3.992-5.555,6.5-7.844
		c2.481-2.269,5.282-4.258,8.313-5.707c3.004-1.437,6.269-2.398,9.566-2.867c2.918-0.414,5.926-0.363,8.84,0.082
		c3.109,0.477,6.211,1.348,9.027,2.75c2.203,1.094,4.219,2.609,5.977,4.332c1.555,1.527,2.93,3.289,3.93,5.223
		c1.101,2.132,1.836,4.484,2.183,6.855c0.238,1.633,0.242,3.336-0.09,4.957c-0.464,2.278-1.332,4.528-2.625,6.461
		c-1.218,1.828-2.8,3.512-4.687,4.637c-1.875,1.121-4.086,1.777-6.266,1.926c-2.129,0.144-4.344-0.215-6.312-1.036
		c-1-0.414-1.903-1.105-2.637-1.902c-0.965-1.055-1.773-2.312-2.203-3.676c-0.344-1.097-0.359-2.297-0.242-3.441
		c0.093-0.895,0.265-1.828,0.734-2.598c0.656-1.086,1.613-2.09,2.774-2.613c1.121-0.5,2.488-0.656,3.671-0.324
		c0.86,0.238,1.645,0.851,2.157,1.582c0.418,0.594,0.621,2.09,0.621,2.09s0.398-0.614,0.324-2.203
		c-0.031-0.696-0.535-1.735-1.141-2.368c-0.683-0.711-1.644-1.215-2.613-1.386c-1.594-0.286-3.336-0.012-4.816,0.652
		c-1.828,0.82-3.551,2.187-4.571,3.918c-1.097,1.867-1.433,4.203-1.304,6.367c0.097,1.629,0.769,3.215,1.55,4.652
		c0.84,1.54,1.961,2.957,3.289,4.098c1.02,0.875,2.247,1.5,3.485,2.024c1.406,0.589,2.894,1.027,4.406,1.222
		c1.945,0.25,3.949,0.262,5.879-0.082c2.27-0.402,4.484-1.219,6.527-2.285c2.145-1.117,4.102-2.602,5.879-4.242
		c1.172-1.086,2.235-2.313,3.102-3.653c1.164-1.8,2.121-3.757,2.754-5.804c0.679-2.203,0.996-4.528,1.074-6.832
		c0.078-2.27-0.191-4.551-0.598-6.789c-0.316-1.746-0.765-3.485-1.429-5.133c-0.954-2.371-2.153-4.664-3.629-6.746
		c-1.305-1.844-2.867-3.516-4.559-5.008c-2.066-1.824-4.328-3.461-6.754-4.762c-3.523-1.886-7.289-3.418-11.183-4.328
		c-4.469-1.043-9.129-1.457-13.711-1.223c-3.891,0.196-7.746,1.071-11.469,2.211c-2.844,0.868-5.59,2.082-8.203,3.5
		c-3.598,1.957-6.457,3.497-10.199,6.86c-3.512,3.152-6.352,7.019-8.981,10.933c-1.754,2.621-3.176,5.461-4.488,8.329
		c-1.496,3.273-2.856,6.632-3.836,10.097c-0.789,2.778-1.262,5.645-1.633,8.512C0.246,53.642-0.016,56.622,0,59.97
		c0.015,2.801,0.437,6.765,0.926,10.116c0.429,2.941,0.976,5.875,1.765,8.738c0.848,3.066,1.922,6.074,3.176,9
		c1.324,3.078,2.879,6.066,4.578,8.957c1.957,3.316,4.055,6.563,6.445,9.578c2.344,2.957,4.918,5.746,7.7,8.293
		c3.535,3.234,7.378,6.133,11.347,8.805c3.879,2.609,7.922,5.004,12.137,7.031c3.84,1.852,7.816,3.48,11.914,4.652
		C62.797,135.946,65.73,136.575,68.593,136.754L68.593,136.754z M68.593,136.754"/>
	<path fill="none" stroke="#000000" stroke-width="0" d="M68.593,136.754l0.129-33.527c0,0-6.875-1.348-10.121-2.609
		c-3.879-1.512-7.593-3.512-11.019-5.879c-4.313-2.979-8.317-6.477-11.832-10.363c-2.895-3.198-5.391-6.777-7.512-10.531
		c-1.473-2.613-2.641-5.406-3.574-8.261c-0.832-2.535-1.414-5.16-1.781-7.801c-0.332-2.371-0.457-4.781-0.387-7.172
		c0.058-2.027,0.293-4.055,0.68-6.047c0.457-2.375,1.085-4.734,1.941-7c0.851-2.246,1.851-4.457,3.152-6.476
		c1.84-2.856,3.992-5.555,6.5-7.844c2.481-2.27,5.282-4.258,8.313-5.707c3.004-1.438,6.269-2.399,9.566-2.867
		c2.918-0.414,5.926-0.364,8.84,0.082c3.109,0.476,6.211,1.347,9.027,2.75c2.203,1.093,4.219,2.609,5.977,4.332
		c1.555,1.527,2.93,3.289,3.93,5.222c1.101,2.133,1.836,4.485,2.183,6.856c0.238,1.633,0.242,3.336-0.09,4.957
		c-0.464,2.277-1.332,4.527-2.625,6.461c-1.218,1.828-2.8,3.512-4.687,4.637c-1.875,1.121-4.086,1.777-6.266,1.925
		c-2.129,0.145-4.344-0.214-6.312-1.035c-1-0.414-1.903-1.105-2.637-1.902c-0.965-1.055-1.773-2.313-2.203-3.676
		c-0.344-1.098-0.359-2.297-0.242-3.441c0.093-0.895,0.265-1.828,0.734-2.598c0.656-1.086,1.613-2.09,2.774-2.613
		c1.121-0.5,2.488-0.657,3.671-0.324c0.86,0.238,1.645,0.851,2.157,1.582c0.418,0.593,0.621,2.089,0.621,2.089
		s0.398-0.613,0.324-2.203c-0.031-0.695-0.535-1.734-1.141-2.367c-0.683-0.711-1.644-1.215-2.613-1.387
		c-1.594-0.285-3.336-0.011-4.816,0.653c-1.828,0.82-3.551,2.187-4.571,3.918c-1.097,1.867-1.433,4.203-1.304,6.367
		c0.097,1.629,0.769,3.215,1.55,4.652c0.84,1.539,1.961,2.957,3.289,4.098c1.02,0.875,2.247,1.5,3.485,2.023
		c1.406,0.59,2.894,1.028,4.406,1.223c1.945,0.25,3.949,0.262,5.879-0.082c2.27-0.402,4.484-1.219,6.527-2.285
		c2.145-1.117,4.102-2.602,5.879-4.242c1.172-1.086,2.235-2.313,3.102-3.653c1.164-1.801,2.121-3.758,2.754-5.804
		c0.679-2.204,0.996-4.528,1.074-6.832c0.078-2.27-0.191-4.551-0.598-6.79c-0.316-1.746-0.765-3.484-1.429-5.132
		c-0.954-2.371-2.153-4.664-3.629-6.746c-1.305-1.844-2.867-3.516-4.559-5.008c-2.066-1.824-4.328-3.461-6.754-4.762
		c-3.523-1.887-7.289-3.418-11.183-4.328c-4.469-1.043-9.129-1.457-13.711-1.223c-3.891,0.196-7.746,1.071-11.469,2.211
		c-2.844,0.867-5.59,2.082-8.203,3.5c-3.598,1.957-6.457,3.496-10.199,6.86c-3.512,3.152-6.352,7.019-8.981,10.933
		c-1.754,2.621-3.176,5.461-4.488,8.328c-1.496,3.274-2.856,6.633-3.836,10.098c-0.789,2.777-1.262,5.644-1.633,8.512
		C0.246,53.642-0.016,56.623,0,59.969c0.015,2.801,0.437,6.766,0.926,10.117c0.429,2.941,0.976,5.875,1.765,8.738
		c0.848,3.066,1.922,6.074,3.176,9c1.324,3.078,2.879,6.066,4.578,8.957c1.957,3.316,4.055,6.563,6.445,9.578
		c2.344,2.957,4.918,5.746,7.7,8.293c3.535,3.234,7.378,6.133,11.347,8.805c3.879,2.609,7.922,5.004,12.137,7.031
		c3.84,1.853,7.816,3.48,11.914,4.652C62.797,135.946,65.73,136.575,68.593,136.754L68.593,136.754z M68.593,136.754"/>
	<path fill="#000028" d="M102.187,46.747c-1.347,3.117-3.625,6.305-5.879,9.145c-1.601,2.019-3.386,3.918-5.386,5.546
		c-1.84,1.5-3.875,2.774-6,3.829c-1.832,0.91-3.754,1.703-5.754,2.132c-3.063,0.661-6.254,0.856-9.383,0.653
		c-1.836-0.121-3.66-0.516-5.406-1.094c-1.907-0.633-3.77-1.473-5.45-2.578c-2.699-1.777-5.414-3.766-7.265-6.41
		c-1.879-2.68-3.203-5.891-3.59-9.141c-0.457-3.832-0.133-8.016,1.59-11.465c1.328-2.66,3.769-4.773,6.324-6.285
		c0.941-0.558,2.066-0.75,3.145-0.93c1.035-0.171,2.097-0.191,3.14-0.132c1.301,0.07,2.641,0.14,3.86,0.593
		c1.492,0.547,2.988,1.332,4.058,2.508c1.11,1.211,1.945,2.785,2.203,4.406c0.211,1.321-0.078,2.731-0.593,3.957
		c-0.434,1.024-1.055,2.102-2.016,2.657c-1.141,0.656-2.285,1.093-3.918,0.488c-0.586-0.215,1.223,0.566,2.203,0.734
		c0.93,0.161,1.676,0.036,2.449-0.242c1.11-0.394,2.188-1.051,2.938-1.961c1.121-1.367,1.773-3.148,2.039-4.898
		c0.222-1.457-0.016-2.985-0.403-4.406c-0.25-0.93-0.746-1.782-1.23-2.614c-0.527-0.906-1.066-1.84-1.809-2.582
		c-1.386-1.39-3.003-2.644-4.824-3.386c-2.648-1.075-5.609-1.543-8.465-1.375c-3.558,0.207-7.156,1.23-10.285,2.937
		c-2.402,1.316-4.429,3.316-6.172,5.434c-0.933,1.136-1.621,2.472-2.218,3.82c-1.075,2.41-1.926,4.945-2.422,7.539
		c-0.457,2.379-0.645,4.828-0.489,7.242c0.161,2.551,0.739,5.078,1.477,7.524c0.48,1.589,1.141,3.129,1.906,4.597
		c1.039,1.992,2.246,3.903,3.617,5.683c1.657,2.156,3.45,4.246,5.528,6c1.961,1.652,4.172,3.023,6.457,4.184
		c2.719,1.383,5.57,2.598,8.547,3.27c4.05,0.918,8.273,1.219,12.422,0.992c3.968-0.215,7.921-1.027,11.707-2.234
		c4.007-1.277,7.878-3.059,11.468-5.242c2.563-1.559,4.828-3.57,7.086-5.543c1.922-1.679,3.809-3.425,5.485-5.351
		c1.265-1.453,2.336-3.066,3.425-4.652c0.832-1.211,2.368-3.715,2.368-3.715L102.187,46.747L102.187,46.747z M102.187,46.747"/>
	<path fill="none" stroke="#000000" stroke-width="0" d="M102.187,46.747c-1.347,3.117-3.625,6.305-5.879,9.145
		c-1.601,2.02-3.386,3.918-5.386,5.547c-1.84,1.5-3.875,2.774-6,3.828c-1.832,0.911-3.754,1.703-5.754,2.133
		c-3.063,0.66-6.254,0.856-9.383,0.653c-1.836-0.122-3.66-0.516-5.406-1.094c-1.907-0.633-3.77-1.473-5.45-2.578
		c-2.699-1.778-5.414-3.766-7.265-6.411c-1.879-2.679-3.203-5.89-3.59-9.14c-0.457-3.832-0.133-8.016,1.59-11.465
		c1.328-2.66,3.769-4.773,6.324-6.285c0.941-0.559,2.066-0.75,3.145-0.93c1.035-0.172,2.097-0.191,3.14-0.133
		c1.301,0.071,2.641,0.141,3.86,0.594c1.492,0.547,2.988,1.332,4.058,2.508c1.11,1.211,1.945,2.785,2.203,4.406
		c0.211,1.32-0.078,2.731-0.593,3.957c-0.434,1.024-1.055,2.102-2.016,2.656c-1.141,0.657-2.285,1.094-3.918,0.489
		c-0.586-0.215,1.223,0.566,2.203,0.734c0.93,0.16,1.676,0.035,2.449-0.242c1.11-0.395,2.188-1.051,2.938-1.961
		c1.121-1.367,1.773-3.148,2.039-4.898c0.222-1.457-0.016-2.985-0.403-4.407c-0.25-0.929-0.746-1.781-1.23-2.613
		c-0.527-0.906-1.066-1.84-1.809-2.582c-1.386-1.391-3.003-2.645-4.824-3.387c-2.648-1.074-5.609-1.543-8.465-1.375
		c-3.558,0.207-7.156,1.231-10.285,2.938c-2.402,1.316-4.429,3.316-6.172,5.433c-0.933,1.137-1.621,2.473-2.218,3.821
		c-1.075,2.41-1.926,4.945-2.422,7.539c-0.457,2.379-0.645,4.828-0.489,7.242c0.161,2.551,0.739,5.078,1.477,7.523
		c0.48,1.59,1.141,3.129,1.906,4.598c1.039,1.992,2.246,3.902,3.617,5.684c1.657,2.155,3.45,4.245,5.528,5.999
		c1.961,1.652,4.172,3.023,6.457,4.184c2.719,1.383,5.57,2.598,8.547,3.27c4.05,0.918,8.273,1.219,12.422,0.992
		c3.968-0.215,7.921-1.026,11.707-2.233c4.007-1.278,7.878-3.06,11.468-5.243c2.563-1.559,4.828-3.57,7.086-5.543
		c1.922-1.679,3.809-3.425,5.485-5.351c1.265-1.453,2.336-3.067,3.425-4.653c0.832-1.21,2.368-3.714,2.368-3.714L102.187,46.747
		L102.187,46.747z M102.187,46.747"/>
	<path d="M167.402,22.559h-4.727v14.727h-18.828V22.559h-4.688v36.055h4.688V41.621h18.828v16.992h4.727V22.559L167.402,22.559z
		 M202.402,54.277h-22.188V42.129h19.961v-4.336h-19.961V26.855h21.367v-4.297h-26.055v36.055h26.875V54.277L202.402,54.277z
		 M215.311,43.848l6.096-16.758l6.367,16.758H215.311L215.311,43.848z M223.965,22.559h-5.078L205.02,58.613h5l3.998-11.016h15.168
		l4.194,11.016h5.352L223.965,22.559L223.965,22.559z M265.02,54.277h-17.578V22.559h-4.688v36.055h22.266V54.277L265.02,54.277z"/>
	<path d="M141.202,95.272v-8.638h9.525v8.638h2.425V76.947h-2.425v7.525h-9.525v-7.525h-2.425v18.325H141.202L141.202,95.272z
		 M164.627,93.072c-0.583,0.434-1.288,0.65-2.112,0.65c-1.108,0-2.034-0.388-2.775-1.163c-0.742-0.774-1.154-1.891-1.238-3.35h9.9
		c0.008-0.267,0.013-0.467,0.013-0.6c0-2.191-0.563-3.892-1.688-5.101c-1.125-1.208-2.575-1.813-4.35-1.813
		c-1.833,0-3.325,0.617-4.475,1.851c-1.15,1.233-1.725,2.967-1.725,5.199c0,2.159,0.568,3.836,1.706,5.031
		c1.138,1.196,2.677,1.794,4.619,1.794c1.542,0,2.808-0.375,3.8-1.125c0.991-0.75,1.67-1.804,2.037-3.162l-2.325-0.288
		C165.673,91.947,165.21,92.639,164.627,93.072L164.627,93.072z M159.796,84.584c0.704-0.691,1.573-1.037,2.606-1.037
		c1.142,0,2.071,0.434,2.788,1.3c0.467,0.559,0.75,1.396,0.85,2.513h-7.413C158.702,86.202,159.091,85.276,159.796,84.584
		L159.796,84.584z M181.903,95.272V81.997h-2.25v7.113c0,1.133-0.123,1.998-0.369,2.594c-0.246,0.596-0.665,1.066-1.256,1.412
		c-0.592,0.346-1.225,0.519-1.9,0.519c-0.675,0-1.242-0.169-1.7-0.506c-0.458-0.338-0.758-0.802-0.9-1.394
		c-0.092-0.408-0.138-1.2-0.138-2.375v-7.363h-2.25v8.226c0,0.958,0.046,1.658,0.138,2.1c0.133,0.659,0.364,1.215,0.693,1.669
		s0.833,0.831,1.513,1.131c0.679,0.301,1.41,0.45,2.194,0.45c1.775,0,3.179-0.75,4.212-2.25v1.95H181.903L181.903,95.272z
		 M187.678,95.272v-6.95c0-0.95,0.125-1.825,0.375-2.625c0.167-0.524,0.446-0.935,0.837-1.231c0.392-0.295,0.833-0.443,1.325-0.443
		c0.55,0,1.1,0.162,1.65,0.487l0.775-2.087c-0.783-0.483-1.554-0.726-2.313-0.726c-0.525,0-1.006,0.15-1.444,0.45
		s-0.915,0.921-1.431,1.862v-2.013h-2.025v13.275H187.678L187.678,95.272z M196.266,79.535v-2.588h-2.25v2.588H196.266
		L196.266,79.535z M196.266,95.272V81.997h-2.25v13.275H196.266L196.266,95.272z M200.548,94.497
		c0.904,0.717,2.219,1.075,3.943,1.075c1.042,0,1.975-0.181,2.8-0.544c0.825-0.362,1.456-0.875,1.894-1.537s0.656-1.369,0.656-2.119
		c0-0.766-0.179-1.408-0.538-1.925s-0.852-0.91-1.481-1.181c-0.629-0.271-1.74-0.619-3.332-1.044c-1.1-0.3-1.762-0.491-1.987-0.575
		c-0.392-0.158-0.679-0.358-0.862-0.6c-0.184-0.233-0.275-0.496-0.275-0.788c0-0.458,0.221-0.858,0.663-1.2
		c0.442-0.341,1.179-0.512,2.212-0.512c0.875,0,1.552,0.191,2.031,0.574c0.479,0.384,0.769,0.917,0.869,1.601l2.2-0.3
		c-0.142-0.858-0.4-1.544-0.775-2.057s-0.956-0.919-1.744-1.219s-1.702-0.45-2.744-0.45c-0.692,0-1.34,0.09-1.944,0.269
		c-0.604,0.18-1.082,0.398-1.431,0.656c-0.467,0.334-0.836,0.753-1.106,1.257c-0.271,0.504-0.406,1.052-0.406,1.644
		c0,0.65,0.165,1.244,0.494,1.781s0.813,0.959,1.45,1.263c0.637,0.304,1.781,0.665,3.431,1.081c1.225,0.309,1.992,0.563,2.3,0.763
		c0.442,0.292,0.663,0.691,0.663,1.2c0,0.566-0.25,1.061-0.75,1.48c-0.5,0.422-1.267,0.632-2.3,0.632
		c-1.025,0-1.823-0.237-2.394-0.713c-0.571-0.475-0.918-1.158-1.043-2.05l-2.225,0.35C199.067,92.718,199.644,93.781,200.548,94.497
		L200.548,94.497z M216.468,93.347c-0.333,0-0.59-0.054-0.769-0.163c-0.179-0.107-0.308-0.254-0.387-0.438
		c-0.08-0.183-0.119-0.596-0.119-1.237v-7.763h2.263v-1.75h-2.263V77.36l-2.237,1.35v3.287h-1.65v1.75h1.65v7.638
		c0,1.351,0.092,2.235,0.275,2.656s0.5,0.761,0.95,1.019c0.45,0.259,1.083,0.388,1.9,0.388c0.5,0,1.067-0.066,1.7-0.2l-0.324-1.987
		C217.046,93.318,216.717,93.347,216.468,93.347L216.468,93.347L216.468,93.347z M221.943,79.535v-2.588h-2.25v2.588H221.943
		L221.943,79.535z M221.943,95.272V81.997h-2.25v13.275H221.943L221.943,95.272z M232.931,92.91
		c-0.592,0.542-1.329,0.813-2.212,0.813c-1.101,0-1.992-0.404-2.676-1.213c-0.684-0.808-1.024-2.104-1.024-3.888
		c0-1.758,0.354-3.043,1.063-3.855c0.708-0.813,1.629-1.219,2.763-1.219c0.75,0,1.389,0.225,1.918,0.675s0.898,1.121,1.106,2.013
		l2.188-0.338c-0.259-1.342-0.846-2.377-1.763-3.106c-0.916-0.729-2.096-1.094-3.537-1.094c-1.142,0-2.198,0.269-3.169,0.807
		c-0.971,0.537-1.693,1.344-2.169,2.419c-0.475,1.074-0.712,2.329-0.712,3.762c0,2.217,0.552,3.919,1.656,5.106
		c1.104,1.188,2.564,1.781,4.381,1.781c1.45,0,2.673-0.431,3.669-1.294c0.996-0.862,1.614-2.056,1.856-3.581l-2.213-0.287
		C233.898,91.535,233.523,92.368,232.931,92.91L232.931,92.91z M254.47,95.272h2.35c-0.283-0.508-0.473-1.039-0.568-1.594
		c-0.096-0.554-0.144-1.877-0.144-3.969v-3c0-1-0.038-1.691-0.113-2.075c-0.133-0.616-0.366-1.127-0.699-1.531
		c-0.334-0.403-0.854-0.739-1.563-1.006c-0.709-0.267-1.63-0.4-2.763-0.4c-1.142,0-2.146,0.156-3.013,0.469
		c-0.867,0.313-1.529,0.759-1.987,1.338c-0.459,0.579-0.788,1.34-0.987,2.281l2.199,0.3c0.242-0.941,0.615-1.598,1.119-1.969
		s1.285-0.557,2.344-0.557c1.133,0,1.987,0.255,2.563,0.763c0.425,0.375,0.638,1.021,0.638,1.938c0,0.084-0.005,0.279-0.013,0.588
		c-0.858,0.3-2.196,0.559-4.013,0.774c-0.892,0.109-1.559,0.222-2,0.338c-0.6,0.167-1.14,0.412-1.618,0.737
		c-0.479,0.325-0.867,0.757-1.163,1.294s-0.443,1.131-0.443,1.781c0,1.108,0.392,2.019,1.175,2.731
		c0.783,0.712,1.904,1.068,3.362,1.068c0.884,0,1.711-0.146,2.481-0.438c0.771-0.291,1.573-0.791,2.406-1.5
		C254.086,94.259,254.237,94.805,254.47,95.272L254.47,95.272L254.47,95.272z M253.833,89.434c0,0.992-0.121,1.742-0.362,2.25
		c-0.317,0.659-0.813,1.178-1.487,1.557c-0.676,0.379-1.446,0.568-2.313,0.568c-0.875,0-1.54-0.199-1.994-0.6s-0.682-0.9-0.682-1.5
		c0-0.392,0.104-0.748,0.313-1.068c0.209-0.321,0.505-0.564,0.888-0.731c0.384-0.167,1.038-0.316,1.963-0.45
		c1.633-0.233,2.858-0.517,3.675-0.85V89.434L253.833,89.434z M261.871,95.272v-7.25c0-1.7,0.348-2.854,1.044-3.463
		c0.695-0.607,1.522-0.912,2.481-0.912c0.6,0,1.122,0.136,1.568,0.406c0.445,0.271,0.756,0.634,0.932,1.088
		c0.175,0.454,0.262,1.14,0.262,2.056v8.075h2.25V87.11c0-1.042-0.041-1.771-0.125-2.188c-0.133-0.642-0.366-1.196-0.699-1.663
		c-0.334-0.466-0.836-0.844-1.507-1.131c-0.671-0.288-1.406-0.432-2.206-0.432c-1.842,0-3.25,0.729-4.225,2.188v-1.888h-2.025
		v13.275H261.871L261.871,95.272z M284.583,95.272V76.947h-2.237v6.575c-0.392-0.541-0.9-0.981-1.525-1.318
		c-0.625-0.338-1.337-0.507-2.137-0.507c-1.092,0-2.08,0.288-2.963,0.862c-0.884,0.575-1.546,1.402-1.987,2.481
		c-0.442,1.079-0.663,2.281-0.663,3.606c0,1.358,0.244,2.561,0.731,3.606s1.175,1.86,2.063,2.443s1.86,0.875,2.919,0.875
		c1.633,0,2.871-0.658,3.713-1.975v1.675H284.583L284.583,95.272z M276.39,84.785c0.671-0.816,1.506-1.226,2.506-1.226
		c1.025,0,1.888,0.426,2.588,1.275s1.05,2.184,1.05,4c0,1.65-0.344,2.877-1.031,3.682c-0.688,0.804-1.523,1.206-2.506,1.206
		c-0.976,0-1.821-0.421-2.538-1.263s-1.075-2.112-1.075-3.813C275.383,86.889,275.719,85.601,276.39,84.785L276.39,84.785z
		 M309.297,95.272V93.11h-11.25v-6.238h10.138v-2.149h-10.138V79.11h10.825v-2.163h-13.25v18.325H309.297L309.297,95.272z
		 M318.173,95.272l5.024-13.275h-2.313l-2.95,8.101c-0.358,0.983-0.637,1.825-0.837,2.524c-0.259-0.925-0.542-1.816-0.851-2.675
		l-2.85-7.95h-2.375l5.05,13.275H318.173L318.173,95.272z M326.092,93.785c1.146,1.191,2.647,1.787,4.506,1.787
		c1.158,0,2.228-0.271,3.207-0.813c0.979-0.541,1.725-1.302,2.237-2.281c0.513-0.979,0.769-2.322,0.769-4.031
		c0-2.108-0.579-3.76-1.737-4.956c-1.158-1.195-2.65-1.794-4.476-1.794c-1.642,0-3.033,0.492-4.175,1.476
		c-1.366,1.184-2.05,3.004-2.05,5.462C324.374,90.876,324.947,92.593,326.092,93.785L326.092,93.785z M327.798,84.822
		c0.742-0.841,1.675-1.263,2.8-1.263c1.108,0,2.036,0.424,2.781,1.27c0.746,0.846,1.119,2.09,1.119,3.73
		c0,1.742-0.371,3.038-1.112,3.888c-0.742,0.851-1.671,1.275-2.788,1.275c-1.125,0-2.058-0.423-2.8-1.269
		c-0.741-0.846-1.112-2.119-1.112-3.819S327.057,85.664,327.798,84.822L327.798,84.822z M341.674,95.272V76.947h-2.25v18.325
		H341.674L341.674,95.272z M355.9,95.272V81.997h-2.25v7.113c0,1.133-0.123,1.998-0.369,2.594s-0.664,1.066-1.256,1.412
		s-1.226,0.519-1.9,0.519s-1.241-0.169-1.7-0.506c-0.458-0.338-0.758-0.802-0.899-1.394c-0.092-0.408-0.138-1.2-0.138-2.375v-7.363
		h-2.25v8.226c0,0.958,0.046,1.658,0.138,2.1c0.133,0.659,0.364,1.215,0.693,1.669s0.833,0.831,1.513,1.131
		c0.679,0.301,1.41,0.45,2.193,0.45c1.775,0,3.18-0.75,4.213-2.25v1.95H355.9L355.9,95.272z M363.375,93.347
		c-0.334,0-0.59-0.054-0.769-0.163c-0.18-0.107-0.309-0.254-0.388-0.438c-0.079-0.183-0.119-0.596-0.119-1.237v-7.763h2.263v-1.75
		H362.1V77.36l-2.237,1.35v3.287h-1.65v1.75h1.65v7.638c0,1.351,0.092,2.235,0.275,2.656c0.183,0.421,0.5,0.761,0.949,1.019
		c0.45,0.259,1.084,0.388,1.9,0.388c0.5,0,1.066-0.066,1.7-0.2l-0.325-1.987C363.955,93.318,363.625,93.347,363.375,93.347
		L363.375,93.347L363.375,93.347z M368.851,79.535v-2.588h-2.25v2.588H368.851L368.851,79.535z M368.851,95.272V81.997h-2.25v13.275
		H368.851L368.851,95.272z M373.183,93.785c1.146,1.191,2.647,1.787,4.506,1.787c1.158,0,2.227-0.271,3.206-0.813
		c0.979-0.541,1.726-1.302,2.237-2.281c0.513-0.979,0.77-2.322,0.77-4.031c0-2.108-0.58-3.76-1.738-4.956
		c-1.158-1.195-2.649-1.794-4.475-1.794c-1.642,0-3.033,0.492-4.175,1.476c-1.367,1.184-2.05,3.004-2.05,5.462
		C371.464,90.876,372.037,92.593,373.183,93.785L373.183,93.785z M374.889,84.822c0.741-0.841,1.675-1.263,2.8-1.263
		c1.108,0,2.035,0.424,2.781,1.27s1.119,2.09,1.119,3.73c0,1.742-0.371,3.038-1.113,3.888c-0.741,0.851-1.671,1.275-2.787,1.275
		c-1.125,0-2.059-0.423-2.8-1.269c-0.742-0.846-1.112-2.119-1.112-3.819S374.147,85.664,374.889,84.822L374.889,84.822z
		 M388.815,95.272v-7.25c0-1.7,0.348-2.854,1.043-3.463c0.696-0.607,1.523-0.912,2.481-0.912c0.601,0,1.123,0.136,1.569,0.406
		c0.445,0.271,0.756,0.634,0.931,1.088s0.263,1.14,0.263,2.056v8.075h2.25V87.11c0-1.042-0.042-1.771-0.125-2.188
		c-0.134-0.642-0.367-1.196-0.7-1.663c-0.333-0.466-0.835-0.844-1.506-1.131c-0.671-0.288-1.406-0.432-2.206-0.432
		c-1.842,0-3.25,0.729-4.226,2.188v-1.888h-2.024v13.275H388.815L388.815,95.272z M409.94,95.272h2.351
		c-0.284-0.508-0.474-1.039-0.569-1.594c-0.096-0.554-0.144-1.877-0.144-3.969v-3c0-1-0.037-1.691-0.112-2.075
		c-0.134-0.616-0.367-1.127-0.7-1.531c-0.333-0.403-0.854-0.739-1.563-1.006s-1.629-0.4-2.763-0.4c-1.142,0-2.146,0.156-3.013,0.469
		c-0.866,0.313-1.529,0.759-1.987,1.338s-0.787,1.34-0.987,2.281l2.2,0.3c0.241-0.941,0.614-1.598,1.118-1.969
		c0.505-0.371,1.286-0.557,2.344-0.557c1.134,0,1.988,0.255,2.563,0.763c0.426,0.375,0.638,1.021,0.638,1.938
		c0,0.084-0.004,0.279-0.013,0.588c-0.858,0.3-2.195,0.559-4.012,0.774c-0.893,0.109-1.559,0.222-2,0.338
		c-0.601,0.167-1.14,0.412-1.619,0.737s-0.867,0.757-1.162,1.294c-0.296,0.537-0.444,1.131-0.444,1.781
		c0,1.108,0.392,2.019,1.175,2.731c0.783,0.712,1.904,1.068,3.363,1.068c0.883,0,1.71-0.146,2.48-0.438
		c0.771-0.291,1.573-0.791,2.406-1.5C409.557,94.259,409.707,94.805,409.94,95.272L409.94,95.272L409.94,95.272z M409.302,89.434
		c0,0.992-0.12,1.742-0.362,2.25c-0.316,0.659-0.813,1.178-1.487,1.557s-1.446,0.568-2.313,0.568c-0.875,0-1.54-0.199-1.994-0.6
		s-0.681-0.9-0.681-1.5c0-0.392,0.104-0.748,0.313-1.068c0.208-0.321,0.504-0.564,0.888-0.731c0.383-0.167,1.037-0.316,1.962-0.45
		c1.634-0.233,2.858-0.517,3.675-0.85V89.434L409.302,89.434z M417.316,95.272v-6.95c0-0.95,0.125-1.825,0.375-2.625
		c0.167-0.524,0.445-0.935,0.837-1.231c0.393-0.295,0.834-0.443,1.325-0.443c0.55,0,1.101,0.162,1.65,0.487l0.774-2.087
		c-0.783-0.483-1.554-0.726-2.313-0.726c-0.524,0-1.006,0.15-1.443,0.45s-0.914,0.921-1.432,1.862v-2.013h-2.024v13.275H417.316
		L417.316,95.272z M424.992,100.66c0.716,0,1.333-0.173,1.85-0.519s0.976-0.89,1.375-1.632c0.3-0.55,0.721-1.554,1.263-3.013
		l5.05-13.5h-2.25l-2.837,7.738c-0.359,0.983-0.667,1.991-0.926,3.024c-0.283-1.075-0.604-2.1-0.962-3.075l-2.763-7.688h-2.425
		l5.037,13.301c-0.092,0.241-0.158,0.425-0.2,0.55c-0.316,0.892-0.546,1.45-0.688,1.675c-0.191,0.3-0.438,0.533-0.737,0.7
		s-0.7,0.25-1.2,0.25c-0.366,0-0.796-0.067-1.287-0.2l0.25,2.112C424.075,100.568,424.558,100.66,424.992,100.66L424.992,100.66
		L424.992,100.66z"/>
	<path d="M139.264,127.272l2.012-5.55h7.663l2.138,5.55h2.762l-7.5-18.325h-2.612l-7.038,18.325H139.264L139.264,127.272z
		 M143.989,114.372c0.425-1.158,0.754-2.324,0.988-3.5c0.283,0.992,0.716,2.259,1.3,3.801l1.913,5.074h-6.212L143.989,114.372
		L143.989,114.372z M157.714,127.272v-18.325h-2.25v18.325H157.714L157.714,127.272z M162.228,131.59
		c0.975,0.713,2.254,1.069,3.837,1.069c1.333,0,2.457-0.25,3.369-0.75c0.912-0.5,1.579-1.182,2-2.044
		c0.42-0.862,0.631-2.327,0.631-4.394v-11.476h-2.075v1.601c-1.017-1.267-2.309-1.9-3.875-1.9c-1.175,0-2.198,0.292-3.069,0.875
		c-0.871,0.584-1.536,1.411-1.994,2.481c-0.458,1.071-0.688,2.24-0.688,3.506c0,1.842,0.5,3.422,1.5,4.738s2.413,1.975,4.237,1.975
		c1.467,0,2.692-0.579,3.675-1.737c0.008,1.467-0.046,2.429-0.163,2.888c-0.2,0.75-0.583,1.333-1.15,1.75
		c-0.567,0.416-1.371,0.625-2.413,0.625c-0.967,0-1.729-0.209-2.288-0.625c-0.417-0.309-0.671-0.801-0.763-1.476l-2.188-0.325
		C160.782,129.805,161.252,130.878,162.228,131.59L162.228,131.59z M163.728,116.778c0.7-0.813,1.55-1.219,2.55-1.219
		c1.017,0,1.885,0.413,2.606,1.238c0.721,0.824,1.082,2.05,1.082,3.675c0,1.7-0.35,2.948-1.05,3.743
		c-0.7,0.797-1.567,1.194-2.6,1.194c-1.042,0-1.908-0.4-2.6-1.2c-0.692-0.8-1.038-2.07-1.038-3.813
		C162.678,118.797,163.028,117.59,163.728,116.778L163.728,116.778z M176.372,125.785c1.146,1.191,2.648,1.787,4.506,1.787
		c1.158,0,2.227-0.271,3.206-0.813c0.979-0.541,1.725-1.302,2.237-2.281c0.513-0.979,0.769-2.322,0.769-4.031
		c0-2.108-0.58-3.76-1.738-4.956c-1.158-1.195-2.65-1.794-4.475-1.794c-1.642,0-3.034,0.492-4.175,1.476
		c-1.367,1.184-2.05,3.004-2.05,5.462C174.653,122.876,175.226,124.593,176.372,125.785L176.372,125.785z M178.078,116.822
		c0.742-0.841,1.675-1.263,2.8-1.263c1.108,0,2.035,0.424,2.781,1.27c0.746,0.846,1.119,2.09,1.119,3.73
		c0,1.742-0.371,3.038-1.113,3.888c-0.742,0.851-1.671,1.275-2.787,1.275c-1.125,0-2.059-0.423-2.8-1.269s-1.112-2.119-1.112-3.819
		S177.336,117.664,178.078,116.822L178.078,116.822z M191.979,127.272v-6.95c0-0.95,0.125-1.825,0.375-2.625
		c0.167-0.524,0.445-0.935,0.837-1.231c0.392-0.295,0.833-0.443,1.325-0.443c0.55,0,1.1,0.162,1.65,0.487l0.775-2.087
		c-0.784-0.483-1.554-0.726-2.313-0.726c-0.525,0-1.006,0.15-1.444,0.45s-0.915,0.921-1.431,1.862v-2.013h-2.025v13.275H191.979
		L191.979,127.272z M200.567,111.535v-2.588h-2.25v2.588H200.567L200.567,111.535z M200.567,127.272v-13.275h-2.25v13.275H200.567
		L200.567,127.272z M207.942,125.347c-0.333,0-0.589-0.054-0.769-0.163c-0.179-0.107-0.309-0.254-0.388-0.438
		c-0.079-0.183-0.119-0.596-0.119-1.237v-7.763h2.263v-1.75h-2.263v-4.637l-2.237,1.35v3.287h-1.65v1.75h1.65v7.638
		c0,1.351,0.091,2.235,0.275,2.656c0.183,0.421,0.5,0.761,0.95,1.019c0.45,0.259,1.083,0.388,1.9,0.388c0.5,0,1.066-0.066,1.7-0.2
		l-0.325-1.987C208.521,125.318,208.192,125.347,207.942,125.347L207.942,125.347L207.942,125.347z M213.406,127.272v-7.263
		c0-1.041,0.125-1.858,0.375-2.45c0.25-0.591,0.668-1.06,1.256-1.406c0.587-0.346,1.214-0.519,1.881-0.519
		c0.892,0,1.581,0.257,2.068,0.769c0.487,0.513,0.731,1.332,0.731,2.457v8.412h2.25v-8.412c0-1.301-0.156-2.292-0.469-2.976
		c-0.313-0.683-0.831-1.219-1.557-1.606c-0.725-0.387-1.579-0.581-2.563-0.581c-1.6,0-2.925,0.608-3.975,1.825v-6.575h-2.25v18.325
		H213.406L213.406,127.272z M227.668,127.272v-6.888c0-1.208,0.121-2.133,0.363-2.774c0.241-0.642,0.631-1.129,1.168-1.463
		c0.538-0.333,1.123-0.5,1.757-0.5c0.833,0,1.433,0.25,1.8,0.75c0.366,0.5,0.55,1.25,0.55,2.25v8.625h2.25v-7.713
		c0-1.366,0.309-2.359,0.925-2.98c0.617-0.621,1.392-0.932,2.325-0.932c0.517,0,0.967,0.121,1.351,0.362
		c0.383,0.242,0.647,0.561,0.793,0.956c0.146,0.396,0.219,1.044,0.219,1.944v8.362h2.238v-9.112c0-1.517-0.354-2.64-1.063-3.369
		c-0.709-0.729-1.722-1.094-3.038-1.094c-1.684,0-3.05,0.775-4.1,2.325c-0.259-0.733-0.702-1.304-1.331-1.713
		c-0.63-0.408-1.436-0.612-2.419-0.612c-0.884,0-1.671,0.198-2.362,0.594c-0.692,0.396-1.246,0.919-1.663,1.569v-1.863h-2.013
		v13.275H227.668L227.668,127.272z M247.6,126.497c0.904,0.717,2.219,1.075,3.944,1.075c1.042,0,1.975-0.181,2.8-0.544
		c0.825-0.362,1.456-0.875,1.894-1.537s0.656-1.369,0.656-2.119c0-0.766-0.179-1.408-0.537-1.925s-0.853-0.91-1.481-1.181
		c-0.629-0.271-1.739-0.619-3.331-1.044c-1.101-0.3-1.763-0.491-1.987-0.575c-0.393-0.158-0.68-0.358-0.863-0.6
		c-0.183-0.233-0.274-0.496-0.274-0.788c0-0.458,0.221-0.858,0.662-1.2c0.442-0.341,1.18-0.512,2.213-0.512
		c0.875,0,1.552,0.191,2.031,0.574c0.479,0.384,0.769,0.917,0.868,1.601l2.2-0.3c-0.142-0.858-0.399-1.544-0.774-2.057
		s-0.957-0.919-1.744-1.219s-1.702-0.45-2.744-0.45c-0.691,0-1.339,0.09-1.943,0.269c-0.604,0.18-1.081,0.398-1.432,0.656
		c-0.467,0.334-0.835,0.753-1.105,1.257c-0.271,0.504-0.406,1.052-0.406,1.644c0,0.65,0.164,1.244,0.493,1.781
		s0.813,0.959,1.45,1.263s1.781,0.665,3.432,1.081c1.225,0.309,1.991,0.563,2.3,0.763c0.441,0.292,0.662,0.691,0.662,1.2
		c0,0.566-0.25,1.061-0.75,1.48c-0.5,0.422-1.267,0.632-2.3,0.632c-1.025,0-1.823-0.237-2.394-0.713
		c-0.571-0.475-0.919-1.158-1.044-2.05l-2.225,0.35C246.12,124.718,246.696,125.781,247.6,126.497L247.6,126.497z M278.371,127.272
		v-2.162h-9.025v-16.163h-2.425v18.325H278.371L278.371,127.272z M290.109,127.272h2.35c-0.283-0.508-0.473-1.039-0.568-1.594
		c-0.096-0.554-0.144-1.877-0.144-3.969v-3c0-1-0.038-1.691-0.113-2.075c-0.133-0.616-0.366-1.127-0.699-1.531
		c-0.334-0.403-0.854-0.739-1.563-1.006c-0.709-0.267-1.63-0.4-2.763-0.4c-1.142,0-2.146,0.156-3.013,0.469
		c-0.867,0.313-1.529,0.759-1.987,1.338c-0.459,0.579-0.788,1.34-0.987,2.281l2.199,0.3c0.242-0.941,0.615-1.598,1.119-1.969
		s1.285-0.557,2.344-0.557c1.133,0,1.987,0.255,2.563,0.763c0.425,0.375,0.638,1.021,0.638,1.938c0,0.084-0.005,0.279-0.013,0.588
		c-0.858,0.3-2.196,0.559-4.013,0.774c-0.892,0.109-1.559,0.222-2,0.338c-0.6,0.167-1.14,0.412-1.618,0.737
		c-0.479,0.325-0.867,0.757-1.163,1.294s-0.443,1.131-0.443,1.781c0,1.108,0.392,2.019,1.175,2.731
		c0.783,0.712,1.904,1.068,3.362,1.068c0.884,0,1.711-0.146,2.481-0.438c0.771-0.291,1.573-0.791,2.406-1.5
		C289.725,126.259,289.875,126.805,290.109,127.272L290.109,127.272L290.109,127.272z M289.471,121.434
		c0,0.992-0.121,1.742-0.362,2.25c-0.317,0.659-0.813,1.178-1.487,1.557c-0.676,0.379-1.446,0.568-2.313,0.568
		c-0.875,0-1.54-0.199-1.994-0.6s-0.682-0.9-0.682-1.5c0-0.392,0.104-0.748,0.313-1.068c0.209-0.321,0.505-0.564,0.888-0.731
		c0.384-0.167,1.038-0.316,1.963-0.45c1.633-0.233,2.858-0.517,3.675-0.85V121.434L289.471,121.434z M297.334,125.61
		c0.892,1.309,2.12,1.962,3.688,1.962c1.575,0,2.925-0.62,4.05-1.862c1.125-1.241,1.688-3,1.688-5.275
		c0-0.958-0.134-1.857-0.4-2.699s-0.635-1.561-1.105-2.156c-0.472-0.596-1.071-1.059-1.801-1.388
		c-0.729-0.329-1.502-0.494-2.318-0.494c-1.475,0-2.688,0.597-3.638,1.788v-6.538h-2.25v18.325h2.088V125.61L297.334,125.61z
		 M298.384,116.829c0.717-0.854,1.566-1.281,2.55-1.281c0.976,0,1.807,0.412,2.494,1.237s1.031,2.104,1.031,3.837
		c0,1.692-0.358,2.965-1.075,3.819s-1.566,1.281-2.55,1.281c-1.209,0-2.167-0.579-2.875-1.737c-0.434-0.709-0.65-1.858-0.65-3.45
		C297.309,118.918,297.667,117.682,298.384,116.829L298.384,116.829z M310.404,125.785c1.146,1.191,2.647,1.787,4.506,1.787
		c1.158,0,2.228-0.271,3.206-0.813c0.979-0.541,1.726-1.302,2.238-2.281c0.512-0.979,0.769-2.322,0.769-4.031
		c0-2.108-0.579-3.76-1.737-4.956c-1.159-1.195-2.65-1.794-4.476-1.794c-1.642,0-3.033,0.492-4.175,1.476
		c-1.367,1.184-2.05,3.004-2.05,5.462C308.685,122.876,309.257,124.593,310.404,125.785L310.404,125.785z M312.11,116.822
		c0.741-0.841,1.675-1.263,2.8-1.263c1.108,0,2.035,0.424,2.781,1.27s1.119,2.09,1.119,3.73c0,1.742-0.371,3.038-1.112,3.888
		c-0.742,0.851-1.671,1.275-2.788,1.275c-1.125,0-2.059-0.423-2.8-1.269c-0.742-0.846-1.112-2.119-1.112-3.819
		S311.368,117.664,312.11,116.822L312.11,116.822z M326.01,127.272v-6.95c0-0.95,0.125-1.825,0.375-2.625
		c0.167-0.524,0.446-0.935,0.838-1.231c0.392-0.295,0.833-0.443,1.325-0.443c0.55,0,1.1,0.162,1.649,0.487l0.775-2.087
		c-0.783-0.483-1.555-0.726-2.313-0.726c-0.525,0-1.007,0.15-1.444,0.45s-0.914,0.921-1.431,1.862v-2.013h-2.025v13.275H326.01
		L326.01,127.272z M341.449,127.272h2.35c-0.283-0.508-0.473-1.039-0.568-1.594c-0.096-0.554-0.144-1.877-0.144-3.969v-3
		c0-1-0.038-1.691-0.113-2.075c-0.133-0.616-0.366-1.127-0.699-1.531c-0.334-0.403-0.854-0.739-1.563-1.006
		c-0.709-0.267-1.63-0.4-2.763-0.4c-1.142,0-2.146,0.156-3.013,0.469c-0.867,0.313-1.529,0.759-1.987,1.338
		c-0.459,0.579-0.788,1.34-0.987,2.281l2.199,0.3c0.242-0.941,0.615-1.598,1.119-1.969s1.285-0.557,2.344-0.557
		c1.133,0,1.987,0.255,2.563,0.763c0.425,0.375,0.638,1.021,0.638,1.938c0,0.084-0.005,0.279-0.013,0.588
		c-0.858,0.3-2.196,0.559-4.013,0.774c-0.892,0.109-1.559,0.222-2,0.338c-0.6,0.167-1.14,0.412-1.618,0.737
		c-0.479,0.325-0.867,0.757-1.163,1.294s-0.443,1.131-0.443,1.781c0,1.108,0.392,2.019,1.175,2.731
		c0.783,0.712,1.904,1.068,3.362,1.068c0.884,0,1.711-0.146,2.481-0.438c0.771-0.291,1.573-0.791,2.406-1.5
		C341.065,126.259,341.215,126.805,341.449,127.272L341.449,127.272L341.449,127.272z M340.811,121.434
		c0,0.992-0.121,1.742-0.362,2.25c-0.317,0.659-0.813,1.178-1.487,1.557c-0.676,0.379-1.446,0.568-2.313,0.568
		c-0.875,0-1.54-0.199-1.994-0.6s-0.682-0.9-0.682-1.5c0-0.392,0.104-0.748,0.313-1.068c0.209-0.321,0.505-0.564,0.888-0.731
		c0.384-0.167,1.038-0.316,1.963-0.45c1.633-0.233,2.858-0.517,3.675-0.85V121.434L340.811,121.434z M350.524,125.347
		c-0.333,0-0.59-0.054-0.769-0.163c-0.18-0.107-0.309-0.254-0.388-0.438c-0.079-0.183-0.118-0.596-0.118-1.237v-7.763h2.262v-1.75
		h-2.262v-4.637l-2.238,1.35v3.287h-1.649v1.75h1.649v7.638c0,1.351,0.092,2.235,0.275,2.656s0.5,0.761,0.95,1.019
		c0.45,0.259,1.083,0.388,1.899,0.388c0.5,0,1.067-0.066,1.7-0.2l-0.325-1.987C351.103,125.318,350.774,125.347,350.524,125.347
		L350.524,125.347L350.524,125.347z M354.619,125.785c1.146,1.191,2.647,1.787,4.506,1.787c1.158,0,2.228-0.271,3.206-0.813
		c0.979-0.541,1.726-1.302,2.238-2.281c0.512-0.979,0.769-2.322,0.769-4.031c0-2.108-0.579-3.76-1.737-4.956
		c-1.159-1.195-2.65-1.794-4.476-1.794c-1.642,0-3.033,0.492-4.175,1.476c-1.367,1.184-2.05,3.004-2.05,5.462
		C352.9,122.876,353.472,124.593,354.619,125.785L354.619,125.785z M356.325,116.822c0.741-0.841,1.675-1.263,2.8-1.263
		c1.108,0,2.035,0.424,2.781,1.27s1.119,2.09,1.119,3.73c0,1.742-0.371,3.038-1.112,3.888c-0.742,0.851-1.671,1.275-2.788,1.275
		c-1.125,0-2.059-0.423-2.8-1.269c-0.742-0.846-1.112-2.119-1.112-3.819S355.583,117.664,356.325,116.822L356.325,116.822z
		 M370.225,127.272v-6.95c0-0.95,0.125-1.825,0.375-2.625c0.167-0.524,0.446-0.935,0.838-1.231c0.392-0.295,0.833-0.443,1.325-0.443
		c0.55,0,1.1,0.162,1.649,0.487l0.775-2.087c-0.783-0.483-1.555-0.726-2.313-0.726c-0.525,0-1.007,0.15-1.444,0.45
		s-0.914,0.921-1.431,1.862v-2.013h-2.025v13.275H370.225L370.225,127.272z M377.901,132.66c0.717,0,1.333-0.173,1.85-0.519
		c0.517-0.347,0.976-0.89,1.375-1.632c0.301-0.55,0.721-1.554,1.263-3.013l5.05-13.5h-2.25l-2.837,7.738
		c-0.358,0.983-0.667,1.991-0.925,3.024c-0.284-1.075-0.604-2.1-0.963-3.075l-2.763-7.688h-2.425l5.037,13.301
		c-0.092,0.241-0.158,0.425-0.199,0.55c-0.317,0.892-0.546,1.45-0.688,1.675c-0.192,0.3-0.438,0.533-0.738,0.7
		c-0.3,0.166-0.699,0.25-1.199,0.25c-0.367,0-0.796-0.067-1.288-0.2l0.25,2.112C376.984,132.568,377.467,132.66,377.901,132.66
		L377.901,132.66L377.901,132.66z"/>
</g>
</svg>
