<?xml version="1.0" encoding="utf-8"?>
<!-- Generator: Adobe Illustrator 15.0.0, SVG Export Plug-In . SVG Version: 6.00 Build 0)  -->
<!DOCTYPE svg PUBLIC "-//W3C//DTD SVG 1.1//EN" "http://www.w3.org/Graphics/SVG/1.1/DTD/svg11.dtd">
<svg version="1.1"
	 id="svg4262" xmlns:dc="http://purl.org/dc/elements/1.1/" xmlns:rdf="http://www.w3.org/1999/02/22-rdf-syntax-ns#" xmlns:cc="http://creativecommons.org/ns#" xmlns:svg="http://www.w3.org/2000/svg"
	 xmlns="http://www.w3.org/2000/svg" xmlns:xlink="http://www.w3.org/1999/xlink" x="0px" y="0px" width="243.865px"
	 height="61.748px" viewBox="0 0 243.865 61.748" enable-background="new 0 0 243.865 61.748" xml:space="preserve">
<g id="layer1" transform="translate(-229.01249,-584.5802)">
	<g id="g218" transform="matrix(2.683854,0,0,-2.683854,-574.82594,784.90843)">
		<g>
			<defs>
				<polygon id="SVGID_1_" points="299.509,51.635 390.373,51.635 390.373,74.642 299.509,74.642 299.509,51.635 				"/>
			</defs>
			<clipPath id="SVGID_2_">
				<use xlink:href="#SVGID_1_"  overflow="visible"/>
			</clipPath>
			<g id="g220" clip-path="url(#SVGID_2_)">
				<g id="g222" transform="translate(317.024,69.8275)">
					<path id="path224" fill="#F46D1E" d="M-3.503,0.963c-0.79,0.258-1.631,0.4-2.506,0.4c-4.448,0-8.053-3.605-8.053-8.052
						c0-2.886,1.519-5.418,3.802-6.838l-1.466-3.143c-3.459,1.983-5.789,5.709-5.789,9.982c0,6.353,5.15,11.504,11.504,11.504
						c1.397,0,2.736-0.25,3.975-0.706L-3.503,0.963z"/>
				</g>
				<g id="g226" transform="translate(321.0284,72.7422)">
					<path id="path228" fill="#F46D1E" d="M-4.304,0.38c3.459-1.984,5.792-5.71,5.792-9.984c0-6.353-5.151-11.504-11.504-11.504
						c-1.399,0-2.74,0.25-3.979,0.707l1.467,3.146c0.791-0.259,1.634-0.402,2.513-0.402c4.446,0,8.052,3.606,8.052,8.053
						c0,2.89-1.522,5.422-3.806,6.842L-4.304,0.38z"/>
				</g>
				<g id="g230" transform="translate(413.0714,55.8117)">
					<path id="path232" fill="#0B1A35" d="M-22.712,3.766h-2.959h-60.97v0.456h63.929V3.766z"/>
				</g>
				<g id="g234" transform="translate(411.9088,66.8234)">
					<path id="path236" fill="#0B1A35" d="M-22.48,1.564c-0.621,0.498-1.27,0.742-1.974,0.742c-0.752,0-1.175-0.29-1.175-0.778
						c0-1.504,4.078-0.611,4.078-3.412c0-1.597-1.362-2.528-3.092-2.528c-1.034,0-2.03,0.292-2.895,0.968l0.723,1.373
						c0.696-0.612,1.335-0.893,2.246-0.893c0.78,0,1.326,0.291,1.326,0.855c0,1.512-4.079,0.544-4.079,3.42
						c0,1.456,1.203,2.452,2.847,2.452c1.025,0,1.936-0.301,2.689-0.836L-22.48,1.564z M-83.057-0.363h0.394
						c0.479,0,0.911,0.029,1.251,0.283c0.262,0.197,0.413,0.516,0.413,0.911c0,0.422-0.141,0.733-0.413,0.939
						c-0.339,0.245-0.696,0.272-1.157,0.272h-1.165v-6.295h-1.729v7.855h2.979c0.95,0,1.776-0.141,2.444-0.761
						c0.516-0.479,0.798-1.166,0.798-1.954c0-1.221-0.637-2.05-1.597-2.444c-0.648-0.273-1.306-0.3-1.936-0.3h-0.282V-0.363z
						 M-33.654-4.253v7.855h1.739v-6.323h3.75l-0.723-1.532H-33.654z M-41.414-4.253h-1.758l3.364,7.912h1.645l3.363-7.912h-1.851
						l-0.724,1.757h-2.65l0.564,1.466h1.502l-1.07,2.612L-41.414-4.253z M-44.906,2.061v-6.314h-1.729v6.314h-2.397v1.541h6.513
						V2.061H-44.906z M-56.181-4.253v7.855h5.93V2.061h-4.211V0.474h3.562v-1.542h-3.562v-1.654h4.267v-1.532H-56.181z
						 M-59.837-4.253v5.131l-2.209-3.355h-0.047l-2.189,3.318v-5.094h-1.7v7.855h1.831l2.105-3.326l2.095,3.326h1.833v-7.855
						H-59.837L-59.837-4.253z M-67.918-4.253h-1.73v7.855h1.73v-7.214V-4.253z M-74.684-0.212c0.45,0,0.874,0.057,1.165,0.319
						c0.216,0.198,0.329,0.47,0.329,0.79c0,0.376-0.122,0.667-0.357,0.854c-0.338,0.273-0.79,0.291-1.175,0.291h-1.55v-6.295h-1.729
						v7.855h3.355c0.912,0,1.663-0.113,2.283-0.582c0.591-0.451,0.921-1.146,0.921-2.03c0-1.269-0.686-2.067-1.682-2.442
						l1.916-2.801h-2.02l-1.681,2.509h-0.686v1.532H-74.684L-74.684-0.212z"/>
				</g>
				<g id="g238" transform="translate(412.0322,52.1026)">
					<path id="path240" fill="#0B1A35" d="M-22.505,4.508c0.555-0.142,0.846-0.338,0.846-0.78c0-0.489-0.385-0.78-0.94-0.78
						c-0.403,0-0.78,0.131-1.099,0.414l0.283,0.329c0.253-0.216,0.497-0.338,0.826-0.338c0.282,0,0.47,0.131,0.47,0.338
						c0,0.188-0.114,0.282-0.593,0.404c-0.564,0.132-0.873,0.301-0.873,0.79c0,0.451,0.365,0.761,0.892,0.761
						c0.385,0,0.686-0.112,0.949-0.329l-0.244-0.347c-0.235,0.178-0.47,0.272-0.714,0.272c-0.274,0-0.424-0.141-0.424-0.319
						C-23.125,4.715-23.012,4.621-22.505,4.508 M-27.062,5.194h-1.486V4.508h1.315V4.104h-1.315V3.398h1.504V2.986h-1.965v2.622
						h1.946V5.194z M-32.692,2.986h-0.47v2.622h0.47V3.309V2.986z M-37.898,2.939c-0.826,0-1.362,0.583-1.362,1.352
						c0,0.744,0.564,1.363,1.353,1.363c0.451,0,0.732-0.131,1.006-0.357l-0.291-0.349c-0.206,0.171-0.405,0.282-0.734,0.282
						c-0.488,0-0.854-0.422-0.854-0.93c0-0.545,0.357-0.939,0.893-0.939c0.254,0,0.469,0.075,0.637,0.198v0.488h-0.676v0.404h1.119
						V3.343C-37.061,3.126-37.438,2.939-37.898,2.939 M-44.09,5.231c-0.518,0-0.882-0.422-0.882-0.93
						c0-0.517,0.375-0.939,0.892-0.939c0.527,0,0.883,0.414,0.883,0.93C-43.198,4.809-43.564,5.231-44.09,5.231 M-44.09,2.939
						c-0.798,0-1.362,0.61-1.362,1.352c0,0.744,0.564,1.363,1.372,1.363c0.808,0,1.373-0.611,1.373-1.354
						C-42.708,3.559-43.281,2.939-44.09,2.939 M-50.48,5.608h0.47V3.398h1.372V2.986h-1.842V5.608z M-55.507,5.231
						c-0.526,0-0.883-0.422-0.883-0.93c0-0.517,0.366-0.939,0.893-0.939c0.516,0,0.883,0.414,0.883,0.93
						C-54.614,4.809-54.991,5.231-55.507,5.231 M-55.507,2.939c-0.808,0-1.372,0.61-1.372,1.352c0,0.744,0.573,1.363,1.382,1.363
						c0.799,0,1.362-0.611,1.362-1.354C-54.135,3.559-54.698,2.939-55.507,2.939 M-60.986,5.608h0.45V2.986h-0.385l-1.447,1.861
						V2.986h-0.451v2.622h0.422l1.41-1.814V5.608z M-68.212,4.085V2.986h-0.46v2.622h0.46v-1.09h1.25v1.09h0.46V2.986h-0.46v1.099
						H-68.212z M-73.23,2.939c-0.761,0-1.334,0.591-1.334,1.352c0,0.752,0.555,1.363,1.352,1.363c0.489,0,0.78-0.169,1.025-0.413
						l-0.291-0.338c-0.216,0.197-0.433,0.329-0.734,0.329c-0.507,0-0.873-0.414-0.873-0.93s0.366-0.939,0.873-0.939
						c0.319,0,0.527,0.131,0.753,0.338l0.29-0.302C-72.441,3.117-72.742,2.939-73.23,2.939 M-78.022,5.194h-1.486V4.508h1.316V4.104
						h-1.316V3.398h1.504V2.986h-1.964v2.622h1.946V5.194L-78.022,5.194z M-84.29,2.986h-0.46v2.199h-0.837v0.423h2.133V5.185
						h-0.836V2.986L-84.29,2.986z"/>
				</g>
			</g>
		</g>
	</g>
</g>
</svg>
