<?xml version="1.0" encoding="utf-8"?>
<!-- Generator: Adobe Illustrator 15.0.0, SVG Export Plug-In . SVG Version: 6.00 Build 0)  -->
<!DOCTYPE svg PUBLIC "-//W3C//DTD SVG 1.1//EN" "http://www.w3.org/Graphics/SVG/1.1/DTD/svg11.dtd">
<svg version="1.1"
	 id="svg3391" xmlns:dc="http://purl.org/dc/elements/1.1/" xmlns:rdf="http://www.w3.org/1999/02/22-rdf-syntax-ns#" xmlns:cc="http://creativecommons.org/ns#" xmlns:svg="http://www.w3.org/2000/svg"
	 xmlns="http://www.w3.org/2000/svg" xmlns:xlink="http://www.w3.org/1999/xlink" x="0px" y="0px" width="892.914px" height="135px"
	 viewBox="0 0 892.914 135" enable-background="new 0 0 892.914 135" xml:space="preserve">
<g id="layer1" transform="translate(88.011278,-509.95652)">
	<g id="g3448" transform="matrix(5.9538871,0,0,5.9538871,-3785.5487,-2955.2615)">
		<g id="g3009" transform="matrix(1.25,0,0,-1.25,634.92177,593.07211)">
			<path id="path3011" fill="#ED1C24" d="M0,0l8.817-8.818h7.494c0,0-3.205,3.176-4.407,4.408c0,0,3.926,1.215,3.908,5.844
				c0.018,6.967-6.537,6.942-7.798,6.945L-4.12,8.378L-10.392,0.9c-0.153-0.173-0.246-0.408-0.246-0.658
				c0-0.263,0.104-0.498,0.273-0.675c0.012-0.013,0.025-0.028,0.038-0.04l8.343-8.344l7.495-0.001l-9.054,9.06l2.205,2.625h8.964
				c0.91,0,1.433-0.643,1.433-1.433C9.059,0.643,8.417,0,7.626,0H0"/>
		</g>
		<g id="g3013" transform="matrix(1.25,0,0,-1.25,747.13552,601.61336)">
			<path id="path3015" fill="#231F20" d="M0,0h-3.084v6.834H-5.73v-7.826c0-0.548,0.445-0.992,0.992-0.992h7.384v8.818H0V0"/>
		</g>
		<g id="g3017" transform="matrix(1.25,0,0,-1.25,761.25052,593.07211)">
			<path id="path3019" fill="#231F20" d="M0,0h-7.383v-8.818h8.375v1.984h-5.73v1.433h5.73v4.41C0.992-0.443,0.548,0,0,0
				 M-1.652-3.41h-3.086v1.432h3.086V-3.41z"/>
		</g>
		<g id="g3021" transform="matrix(1.25,0,0,-1.25,660.19802,593.07211)">
			<path id="path3023" fill="#231F20" d="M0,0v-8.818h2.646v6.834H5.07L5.069,0.001L0,0"/>
		</g>
		<g id="g3025" transform="matrix(1.25,0,0,-1.25,701.01552,593.07211)">
			<path id="path3027" fill="#231F20" d="M0,0h-7.384v-8.817h8.376v1.983h-5.73v1.433h5.73v4.41C0.992-0.443,0.549,0,0,0
				 M-1.653-3.41h-3.085v1.426h3.085V-3.41z"/>
		</g>
		<g id="g3029" transform="matrix(1.25,0,0,-1.25,676.92177,593.07211)">
			<path id="path3031" fill="#231F20" d="M0,0h-7.384v-8.818h8.376v7.827C0.992-0.443,0.549,0,0,0 M-4.738-6.834v4.851h3.085
				l0.001-4.851H-4.738"/>
		</g>
		<g id="g3033" transform="matrix(1.25,0,0,-1.25,688.96927,593.07211)">
			<path id="path3035" fill="#231F20" d="M0,0h-7.384v-5.401h5.73v-1.433h-5.73v-1.984h8.375v5.406h-5.73v1.428h5.73
				c0,0,0.001,0.773,0.001,0.993C0.992-0.443,0.547,0,0,0"/>
		</g>
		<g id="g3037" transform="matrix(1.25,0,0,-1.25,713.06177,593.07211)">
			<path id="path3039" fill="#231F20" d="M0,0h-7.384v-8.818h2.645v6.835h3.085v-6.835h2.646v7.827C0.992-0.443,0.548,0,0,0"/>
		</g>
		<g id="g3041" transform="matrix(1.25,0,0,-1.25,725.09427,593.07211)">
			<path id="path3043" fill="#231F20" d="M0,0l-4.724,0.001V4.41H-7.37V-8.818h8.375v7.827C1.011-0.438,0.55,0.006,0,0 M-1.64-6.834
				h-3.084v4.85l3.084,0.001V-6.834"/>
		</g>
		<g id="g3045" transform="matrix(1.25,0,0,-1.25,764.06802,593.07211)">
			<path id="path3047" fill="#231F20" d="M0,0l0.001-8.818h2.644v6.834L5.07-1.985v1.986L0,0"/>
		</g>
		<g id="g3049" transform="matrix(1.25,0,0,-1.25,737.15802,593.07211)">
			<path id="path3051" fill="#231F20" d="M0,0h-7.384l0.001-1.983h5.721v-1.433h-5.721l-0.001-5.402h8.376v7.826
				C0.992-0.443,0.547,0,0,0 M-1.662-6.834h-3.066v1.432h3.066V-6.834z"/>
		</g>
	</g>
</g>
</svg>
