<?xml version="1.0" encoding="utf-8"?>
<!-- Generator: Adobe Illustrator 15.0.0, SVG Export Plug-In . SVG Version: 6.00 Build 0)  -->
<!DOCTYPE svg PUBLIC "-//W3C//DTD SVG 1.1//EN" "http://www.w3.org/Graphics/SVG/1.1/DTD/svg11.dtd">
<svg version="1.1" id="svg1943" xmlns:svg="http://www.w3.org/2000/svg"
	 xmlns="http://www.w3.org/2000/svg" xmlns:xlink="http://www.w3.org/1999/xlink" x="0px" y="0px" width="765.355px"
	 height="141.52px" viewBox="0 0 765.355 141.52" enable-background="new 0 0 765.355 141.52" xml:space="preserve">
<g id="layer1" transform="translate(-1637.415,-484.1186)">
	<g id="g27344" transform="matrix(1.336864,0,0,1.336864,-546.3037,-158.3431)">
		<path id="path26973" d="M1893.776,492.972v16.687h-9.156v8.906h9.156v25.594c0,8.9,1.125,14.75,16.063,14.75
			c3.423,0,5.092-0.261,7.938-0.656l0.938-0.126v-9.843l-1.781,0.062l-6.5,0.126c-3.512,0-3.813-2.278-3.813-7.875v-22.031h12.375
			v-8.906h-12.375v-16.687h-2.843H1893.776z M1732.089,507.691c-21.563,0-29.25,13.369-29.25,25.875
			c0,12.506,7.688,25.875,29.25,25.875c21.606,0,29.25-13.369,29.25-25.875C1761.339,521.06,1753.695,507.691,1732.089,507.691z
			 M1796.276,507.691c-16.983,0-28.438,10.575-28.438,26.312c0,12.293,7.688,25.438,29.25,25.438
			c19.117,0,25.093-11.994,27.094-15.937l0.281-0.563h-14.219l-0.063,0.062c-1.956,3.228-5.11,6.531-13.469,6.531
			c-10.492,0-14.698-6.524-15.187-12.344h43.781v-2.281C1825.307,517.873,1814.46,507.691,1796.276,507.691z M1856.214,507.691
			c-7.113,0-23.688,1.532-23.688,15.719c0,11.324,8.028,12.995,22.344,14.938c13.426,1.836,14.625,3.084,14.625,6.187
			c0,4.103-6.523,5.531-12.125,5.531c-3.468,0-11.419-0.727-12.219-7.124h-14.188c0.8,13.599,14.808,16.5,26.5,16.5
			c17.161,0,26.187-5.728,26.187-16.594c0-11.434-10.762-13.013-25.656-15.188c-11.648-1.685-12.406-2.286-12.406-5.656
			c0-1.992,3.185-4.937,10.031-4.937c5.29,0,11.736,1.284,12.625,7.313h13.656C1881.368,513.477,1872.53,507.691,1856.214,507.691z
			 M1646.276,509.503l21.656,48.282h13.781l21.687-48.282h-0.75h-14c0,0-13.217,32.242-14.062,34.344
			c-0.844-2.112-13.563-34.344-13.563-34.344H1646.276z M1796.464,517.066c6.224,0,13.297,2.949,15.031,11.063h-29.813
			C1783.772,520.019,1790.64,517.066,1796.464,517.066z M1732.089,518.128c9.825,0,15.656,5.768,15.656,15.437
			c0,9.67-5.831,15.438-15.656,15.438c-9.781,0-15.656-5.768-15.656-15.438C1716.433,523.896,1722.308,518.128,1732.089,518.128z"/>
		<path id="path26975" fill="#0077AB" d="M1983.401,493.097v64.594h9.157v-64.594H1983.401z M2064.495,493.097v9.844h9.156v-9.844
			H2064.495z M1949.183,507.941c-14.449,0-22.72,4.693-23.875,16.719h8.624c0.267-7.438,6.975-9.562,14.844-9.562
			c7.425,0,13.876,1.3,13.876,7.906c0,4.312-3.219,5.23-8.376,5.781l-10.437,1.094c-15.428,1.654-20.688,6.157-20.688,14.969
			c0,6.242,3.601,14.5,19.563,14.5c7.825,0,16.823-2.855,20.468-7.813c0.668,5.414,3.671,6.719,8.25,6.719
			c2.224,0,6.009-0.199,8.187-0.563v-6.406c-0.933,0.182-3.195,0.343-4.218,0.343c-2.846,0-4.126-1.28-4.126-4.124v-25.875
			C1971.276,510.434,1958.963,507.941,1949.183,507.941z M2111.494,507.941c-6.89,0-14.518,2.206-18.874,8.906h-0.156v-7.25h-9.156
			v48.094h9.156v-27.719c0-9.452,7.423-14.312,15.781-14.312c9.825,0,14.281,4.056,14.281,11.125v30.907h9.156v-32.75
			C2131.682,512.915,2123.054,507.941,2111.494,507.941z M2167.089,507.941c-18.717,0-27.906,11.861-27.906,25.719
			c0,13.857,9.189,25.688,27.906,25.688c9.425,0,20.202-4.682,24.781-16.25h-9.751c-3.112,6.793-10.253,8.531-15.499,8.531
			c-8.136,0-16.977-5.305-17.688-15.219h44.219v-1.187C2193.151,515.305,2179.759,507.941,2167.089,507.941z M2030.808,508.503
			c-7.07,0-14.681,2.767-18.281,7.813h-0.188v-6.719h-9.156v64.437h9.156v-22.5h0.188c3.689,5.232,11.122,7.813,18.281,7.813
			c14.493,0,26.125-9.255,26.125-25.406C2056.933,517.785,2045.301,508.503,2030.808,508.503z M2064.495,509.597v48.094h9.156
			v-48.094H2064.495z M2166.62,515.66c8.669,0,15.434,4.875,16.813,13.594h-34.251C2150.561,520.629,2158.173,515.66,2166.62,515.66
			z M2029.589,516.222c12.402,0,17.656,8.631,17.656,17.719c0,11.012-6.986,17.687-17.656,17.687
			c-10.715,0-17.782-6.675-17.782-17.687C2011.808,524.854,2017.14,516.222,2029.589,516.222z M1962.652,532.535v6.156
			c0,7.984-8.737,13.499-19.095,13.499c-6.713,0-11.187-3.126-11.187-7.625c0-5.046,3.717-6.954,10.875-7.875l10.406-1.313
			C1958.764,534.738,1961.273,534.095,1962.652,532.535z"/>
	</g>
</g>
</svg>
